<svg xmlns="http://www.w3.org/2000/svg" xmlns:xlink="http://www.w3.org/1999/xlink" width="227" height="166" viewBox="0 0 227 166">
    <defs>
        <path id="a" d="M0 0h227v167H0z"/>
        <linearGradient id="c" x1="74.755%" x2="-6.412%" y1="80.697%" y2="-19.951%">
            <stop offset="0%" stop-color="#008E91"/>
            <stop offset="100%" stop-color="#FF9694" stop-opacity=".5"/>
        </linearGradient>
        <linearGradient id="d" x1="45.774%" x2="51.56%" y1="50.983%" y2="40.653%">
            <stop offset="0%" stop-color="#589694"/>
            <stop offset="100%" stop-color="#87BABA"/>
        </linearGradient>
        <linearGradient id="e" x1="40.158%" x2="51%" y1="-37970.52%" y2="-37931.077%">
            <stop offset="0%" stop-color="#589694"/>
            <stop offset="100%" stop-color="#87BABA"/>
        </linearGradient>
        <linearGradient id="f" x1="50.799%" x2="55.356%" y1="-3599.352%" y2="-3592.341%">
            <stop offset="0%" stop-color="#589694"/>
            <stop offset="100%" stop-color="#87BABA"/>
        </linearGradient>
        <linearGradient id="g" x1=".063%" x2="99.815%" y1="49.943%" y2="49.943%">
            <stop offset="25%" stop-color="#4B8694"/>
            <stop offset="100%" stop-color="#589694" stop-opacity=".5"/>
        </linearGradient>
        <linearGradient id="h" x1="-.076%" x2="100.367%" y1="-16889.497%" y2="-16889.497%">
            <stop offset="25%" stop-color="#4B8694"/>
            <stop offset="100%" stop-color="#589694" stop-opacity=".5"/>
        </linearGradient>
        <linearGradient id="i" x1=".008%" x2="99.983%" y1="-16929.301%" y2="-16929.301%">
            <stop offset="25%" stop-color="#4B8694"/>
            <stop offset="100%" stop-color="#589694" stop-opacity=".5"/>
        </linearGradient>
        <linearGradient id="j" x1="-1.064%" x2="96.87%" y1="48.358%" y2="54.274%">
            <stop offset="0%" stop-color="#008591"/>
            <stop offset="83%" stop-color="#ACAFA6"/>
        </linearGradient>
        <linearGradient id="k" x1="40.442%" x2="55.661%" y1="-10712.727%" y2="-10747.979%">
            <stop offset="0%" stop-color="#008E91"/>
            <stop offset="100%" stop-color="#FF9694" stop-opacity=".5"/>
        </linearGradient>
        <linearGradient id="l" x1="36.626%" x2="45.7%" y1="-9423.552%" y2="-9441.193%">
            <stop offset="0%" stop-color="#008E91"/>
            <stop offset="100%" stop-color="#FF9694" stop-opacity=".5"/>
        </linearGradient>
        <linearGradient id="m" x1="51.306%" x2="20.675%" y1="69.457%" y2="36.234%">
            <stop offset="0%" stop-color="#589694" stop-opacity=".5"/>
            <stop offset="100%" stop-color="#007B80"/>
        </linearGradient>
        <linearGradient id="n" x1="82.473%" x2="25.449%" y1="-13236.462%" y2="-13183.238%">
            <stop offset="0%" stop-color="#589694" stop-opacity=".5"/>
            <stop offset="100%" stop-color="#007B80"/>
        </linearGradient>
        <linearGradient id="o" x1="-25.615%" x2="71.479%" y1="41.26%" y2="52.593%">
            <stop offset="71%" stop-color="#37B6B5"/>
            <stop offset="80%" stop-color="#FFF"/>
            <stop offset="90%" stop-color="#FFF" stop-opacity=".32"/>
            <stop offset="95%" stop-color="#FFF" stop-opacity="0"/>
        </linearGradient>
        <linearGradient id="p" x1="-30.343%" x2="69.719%" y1="49.98%" y2="50.151%">
            <stop offset="0%" stop-color="#008E91"/>
            <stop offset="27%" stop-color="#FF9694" stop-opacity=".5"/>
            <stop offset="100%" stop-color="#FF9694" stop-opacity="0"/>
        </linearGradient>
        <linearGradient id="q" x1="-1.252%" x2="89.917%" y1="45.516%" y2="54.772%">
            <stop offset="34%" stop-color="#008E91"/>
            <stop offset="63%" stop-color="#FF9694" stop-opacity=".5"/>
            <stop offset="90%" stop-color="#FF9694" stop-opacity="0"/>
        </linearGradient>
        <linearGradient id="r" x1="24.658%" x2="78.336%" y1="49.981%" y2="49.981%">
            <stop offset="0%" stop-color="#008E91"/>
            <stop offset="39%" stop-color="#FFF"/>
            <stop offset="95%" stop-color="#FF9E9C" stop-opacity=".05"/>
            <stop offset="100%" stop-color="#FF9694" stop-opacity="0"/>
        </linearGradient>
        <linearGradient id="s" x1="-19.765%" x2="78.742%" y1="47.356%" y2="51.723%">
            <stop offset="0%" stop-color="#008E91"/>
            <stop offset="75%" stop-color="#FFF"/>
            <stop offset="100%" stop-color="#FFF" stop-opacity="0"/>
        </linearGradient>
        <linearGradient id="t" x1="-1.316%" x2="91.829%" y1="43.897%" y2="56.582%">
            <stop offset="0%" stop-color="#008E91"/>
            <stop offset="61%" stop-color="#FFF"/>
            <stop offset="91%" stop-color="#FFF" stop-opacity="0"/>
        </linearGradient>
        <linearGradient id="u" x1="-32.624%" x2="67.388%" y1="49.998%" y2="50.041%">
            <stop offset="0%" stop-color="#008E91"/>
            <stop offset="46%" stop-color="#FFF" stop-opacity=".5"/>
            <stop offset="99%" stop-color="#FFF" stop-opacity="0"/>
        </linearGradient>
        <linearGradient id="v" x1="0%" y1="50.009%" y2="50.009%">
            <stop offset="0%" stop-color="#FFF"/>
            <stop offset="100%" stop-color="#FF9694" stop-opacity=".5"/>
        </linearGradient>
        <linearGradient id="w" x1="0%" y1="-55547.566%" y2="-55547.566%">
            <stop offset="0%" stop-color="#FFF"/>
            <stop offset="100%" stop-color="#FF9694" stop-opacity=".5"/>
        </linearGradient>
        <linearGradient id="x" x1="3.283%" x2="100.467%" y1="47.574%" y2="51.778%">
            <stop offset="0%" stop-color="#36626A"/>
            <stop offset="79%" stop-color="#007B80"/>
            <stop offset="99%" stop-color="#007B80" stop-opacity="0"/>
        </linearGradient>
        <linearGradient id="y" x1="-.088%" y1="-93520.659%" y2="-93520.659%">
            <stop offset="0%" stop-color="#008E91"/>
            <stop offset="100%" stop-color="#FF9694" stop-opacity=".5"/>
        </linearGradient>
        <linearGradient id="z" x1="0%" x2="99.919%" y1="50.072%" y2="50.072%">
            <stop offset="0%" stop-color="#008E91"/>
            <stop offset="100%" stop-color="#FFF" stop-opacity=".5"/>
        </linearGradient>
        <linearGradient id="A" x1="102.42%" x2="2.342%" y1="50.125%" y2="49.731%">
            <stop offset="22%" stop-color="#FFF"/>
            <stop offset="78%" stop-color="#80BAB5"/>
        </linearGradient>
        <linearGradient id="B" x1="102.671%" x2="2.12%" y1="-4642.829%" y2="-4642.068%">
            <stop offset="0%" stop-color="#008E91"/>
            <stop offset="100%" stop-color="#FF9694" stop-opacity=".5"/>
        </linearGradient>
        <linearGradient id="C" x1="102.465%" x2="2.421%" y1="-272.741%" y2="-272.634%">
            <stop offset="0%" stop-color="#008E91"/>
            <stop offset="100%" stop-color="#FF9694" stop-opacity=".5"/>
        </linearGradient>
        <linearGradient id="D" x1="3.385%" x2="95.274%" y1="46.578%" y2="55.447%">
            <stop offset="0%" stop-color="#008E91"/>
            <stop offset="20%" stop-color="#FFF" stop-opacity=".93"/>
            <stop offset="67%" stop-color="#FF8765" stop-opacity=".66"/>
            <stop offset="100%" stop-color="#FF9694" stop-opacity=".5"/>
        </linearGradient>
        <linearGradient id="E" x1="-.184%" y1="-24405.771%" y2="-24405.771%">
            <stop offset="0%" stop-color="#589694" stop-opacity=".5"/>
            <stop offset="100%" stop-color="#007B80"/>
        </linearGradient>
        <linearGradient id="F" x1="0%" y1="50.057%" y2="50.057%">
            <stop offset="0%" stop-color="#FF8765" stop-opacity=".69"/>
            <stop offset="100%" stop-color="#007B80"/>
        </linearGradient>
        <linearGradient id="G" x1="-.082%" y1="50%" y2="50%">
            <stop offset="0%" stop-color="#FF8765" stop-opacity=".5"/>
            <stop offset="100%" stop-color="#007B80"/>
        </linearGradient>
        <linearGradient id="H" x1="0%" x2="100.092%" y1="50.083%" y2="50.083%">
            <stop offset="0%" stop-color="#FF5C65" stop-opacity=".1"/>
            <stop offset="51%" stop-color="#FF8765" stop-opacity=".56"/>
            <stop offset="100%" stop-color="#FF5C65"/>
        </linearGradient>
        <linearGradient id="I" x1="-.048%" y1="50.001%" y2="50.001%">
            <stop offset="0%" stop-color="#007B80"/>
            <stop offset="100%" stop-color="#589694" stop-opacity=".5"/>
        </linearGradient>
        <linearGradient id="J" x1="0%" y1="-34168.18%" y2="-34168.18%">
            <stop offset="0%" stop-color="#589694" stop-opacity=".5"/>
            <stop offset="100%" stop-color="#007B80"/>
        </linearGradient>
        <linearGradient id="K" x1="0%" y1="-72957.899%" y2="-72957.899%">
            <stop offset="0%" stop-color="#589694" stop-opacity=".5"/>
            <stop offset="100%" stop-color="#007B80"/>
        </linearGradient>
        <linearGradient id="L" x1=".317%" x2="100.309%" y1="-132313.679%" y2="-132313.679%">
            <stop offset="0%" stop-color="#589694" stop-opacity=".5"/>
            <stop offset="100%" stop-color="#007B80"/>
        </linearGradient>
        <linearGradient id="M" x1="0%" y1="-197218.97%" y2="-197218.97%">
            <stop offset="0%" stop-color="#589694" stop-opacity=".5"/>
            <stop offset="100%" stop-color="#007B80"/>
        </linearGradient>
        <linearGradient id="N" x1="-.209%" y1="-315511.236%" y2="-315511.236%">
            <stop offset="0%" stop-color="#589694" stop-opacity=".5"/>
            <stop offset="100%" stop-color="#007B80"/>
        </linearGradient>
        <linearGradient id="O" x1="-.15%" y1="-28648.121%" y2="-28648.121%">
            <stop offset="0%" stop-color="#589694" stop-opacity=".5"/>
            <stop offset="100%" stop-color="#007B80"/>
        </linearGradient>
        <linearGradient id="P" x1="102.459%" x2="2.373%" y1="50.105%" y2="49.948%">
            <stop offset="0%" stop-color="teal"/>
            <stop offset="100%" stop-color="#FF9694" stop-opacity=".5"/>
        </linearGradient>
        <linearGradient id="Q" x1="0%" y1="50%" y2="50%">
            <stop offset="0%" stop-color="#00968C"/>
            <stop offset="40%" stop-color="#0B7F80"/>
            <stop offset="98%" stop-color="#CAAFA6"/>
        </linearGradient>
        <linearGradient id="R" x1="102.488%" x2="2.222%" y1="-457.483%" y2="-457.378%">
            <stop offset="0%" stop-color="#00968C"/>
            <stop offset="40%" stop-color="#0B7F80"/>
            <stop offset="98%" stop-color="#CAAFA6"/>
        </linearGradient>
        <linearGradient id="S" x1="102.372%" x2="2.366%" y1="-397.68%" y2="-397.597%">
            <stop offset="0%" stop-color="#008E91"/>
            <stop offset="100%" stop-color="#FF9694" stop-opacity=".5"/>
        </linearGradient>
        <linearGradient id="T" x1="0%" y1="-379232.432%" y2="-379232.432%">
            <stop offset="0%" stop-color="#00968C"/>
            <stop offset="40%" stop-color="#0B7F80"/>
            <stop offset="98%" stop-color="#CAAFA6"/>
        </linearGradient>
        <linearGradient id="U" x1="0%" y1="-33889.141%" y2="-33889.141%">
            <stop offset="0%" stop-color="#00968C"/>
            <stop offset="40%" stop-color="#0B7F80"/>
            <stop offset="98%" stop-color="#CAAFA6"/>
        </linearGradient>
        <linearGradient id="V" x1="0%" x2="100.001%" y1="49.673%" y2="49.673%">
            <stop offset="0%" stop-color="#FFF" stop-opacity=".1"/>
            <stop offset="70%" stop-color="#AD4C50"/>
        </linearGradient>
        <linearGradient id="W" x1="102.535%" x2="2.375%" y1="-1160.932%" y2="-1160.769%">
            <stop offset="0%" stop-color="#008E91"/>
            <stop offset="100%" stop-color="#FF9694" stop-opacity=".5"/>
        </linearGradient>
        <linearGradient id="X" x1="102.507%" x2="2.174%" y1="-1483.114%" y2="-1482.981%">
            <stop offset="0%" stop-color="#008E91"/>
            <stop offset="100%" stop-color="#FF9694" stop-opacity=".5"/>
        </linearGradient>
        <linearGradient id="Y" x1="102.524%" x2="2.113%" y1="-2329.334%" y2="-2329.201%">
            <stop offset="0%" stop-color="#008E91"/>
            <stop offset="100%" stop-color="#FF9694" stop-opacity=".5"/>
        </linearGradient>
        <linearGradient id="Z" x1="54.36%" x2="46.073%" y1="-40354.42%" y2="-40354.181%">
            <stop offset="0%" stop-color="#008E91"/>
            <stop offset="100%" stop-color="#FF9694" stop-opacity=".5"/>
        </linearGradient>
        <linearGradient id="aa" x1="0%" x2="99.995%" y1="50.041%" y2="50.041%">
            <stop offset="0%" stop-color="#FF5C65" stop-opacity=".1"/>
            <stop offset="0%" stop-color="#FF8765" stop-opacity=".56"/>
            <stop offset="100%" stop-color="#FF5C65"/>
        </linearGradient>
        <linearGradient id="ab" x1="0%" x2="99.987%" y1="49.986%" y2="49.986%">
            <stop offset="0%" stop-color="#FF5C65" stop-opacity=".1"/>
            <stop offset="0%" stop-color="#FF8765" stop-opacity=".56"/>
            <stop offset="100%" stop-color="#FF5C65"/>
        </linearGradient>
        <linearGradient id="ac" x1="0%" x2="99.99%" y1="50.022%" y2="50.022%">
            <stop offset="0%" stop-color="#99C5C4"/>
            <stop offset="0%" stop-color="#FF8765" stop-opacity=".56"/>
            <stop offset="100%" stop-color="#FF5C65"/>
        </linearGradient>
    </defs>
    <g fill="none" fill-rule="evenodd" transform="translate(0 -1)">
        <mask id="b" fill="#fff">
            <use xlink:href="#a"/>
        </mask>
        <g mask="url(#b)">
            <path d="M145.305 145.752l.332-.323m35.335-55.182c.053.078.105.143.157.208.137.174.273.388.41.601l.365.563.371.57"/>
            <path fill="url(#c)" fill-rule="nonzero" d="M144.301 93.985c0 3.035-.188 6.067-.565 9.079a76.953 76.953 0 0 1-.636 4.08v.083a70.795 70.795 0 0 1-2.096 8.43 71.223 71.223 0 0 1-1.194 3.49l-.038.09c-.052.15-.11.299-.17.448l-.31.81-.221.552c-.22.55-.454 1.096-.688 1.64a45.213 45.213 0 0 1-.857 1.894c-.292.597-.493 1.031-.746 1.543a77.563 77.563 0 0 1-2.647 4.832l-.137.227c-.389.648-.785 1.297-1.2 1.945l-.526.804c-.266.402-.532.792-.804 1.18l-.565.805a72.24 72.24 0 0 1-18.169 17.775 72.149 72.149 0 0 1-40.601 12.465c-1 0-1.992 0-2.978-.065-.831 0-1.662-.085-2.486-.143a71.946 71.946 0 0 1-48.33-23.722 67.12 67.12 0 0 1-2.796-3.308 72.865 72.865 0 0 1-5.25-7.522v-.046a68.716 68.716 0 0 1-1.025-1.757 72.984 72.984 0 0 1-4.055-8.32A71.8 71.8 0 0 1 .668 104.51a83.747 83.747 0 0 1-.454-3.852c0-.325-.058-.649-.084-.96v-.058a3.13 3.13 0 0 0-.052-.694l-.04-.649V97.11L0 95.93v-3.923C1.122 53.29 32.625 22.362 71.378 21.929h3.556a72.108 72.108 0 0 1 52.418 25.597h.032c.662.79 1.31 1.589 1.947 2.393.409.525.811 1.063 1.207 1.602.396.538.778 1.076 1.155 1.627.084.123.175.247.26.383a71.816 71.816 0 0 1 5.84 10.376 70.179 70.179 0 0 1 1.719 4.073c.123.31.24.648.357.933l.33.915a70.005 70.005 0 0 1 1.83 5.934 72.605 72.605 0 0 1 2.272 18.223z" opacity=".7"/>
            <path d="M190.82 107.019c.01-.154.027-.307.053-.46.006-.094.006-.19 0-.284v-.13c.032-.375.051-.73.051-1.093a10.1 10.1 0 0 0-.058-1.293 16.591 16.591 0 0 0-1.094-4.529c-.466-1.242-1.05-2.51-1.69-3.88l-.175-.357c-3.516-7.452-5.31-11.223-7.557-14.425a57.08 57.08 0 0 0-6.028-7.245c-1.25-1.294-2.59-2.587-4.093-4.062-.615-.595-1.217-1.184-1.82-1.76l-1.087-1.041c-5.258-5.059-9.713-9.147-16.551-12.556a1.108 1.108 0 0 0-.175-.09l-.123-.065h-.084l-.084-.045-.214-.117h-.039l-.077-.039h-.15a49.454 49.454 0 0 0-2.499-1.151 55.91 55.91 0 0 0-10.36-3.331 54.537 54.537 0 0 0-9.506-1.048A71.954 71.954 0 0 0 76 22.576l-.984-.045H71.45c-.603 0-1.205 0-1.807.045l-.855.033-.842.045-.841.052C32.294 25.264 4.309 52.348.648 87.024l-.078.815-.078.886-.078 1.165v.22c0 .433-.051.866-.064 1.293v6.585l.039.596c2.991.142 5.827.31 8.45.53l.33.032a5.021 5.021 0 0 0-.052-.537V98.054h12.95l2.112.853c1.509.608 3.089 1.235 4.714 1.876l1.632.11v.53l.647.246h.084l.713.078-.085.194-.136.31-.032.065v.045l-.162.375-.142.33-.233.544-.26.595-.258.601-2.63 6.062-4.364 9.994-5.873.18-1.813 2.588-3.95 5.719a30.006 30.006 0 0 1 1.84-2.213c.226-.252.459-.491.692-.724l.272-.259.382-.35c.22-.2.447-.394.686-.581a7.32 7.32 0 0 1 .35-.278l.363-.272.375-.259a3.95 3.95 0 0 1 .389-.246c.13-.084.259-.168.395-.246l.408-.239c.233-.123.466-.246.705-.362.123-.065.247-.117.37-.175l.369-.168c.123-.052.356-.155.53-.22l.519-.2.518-.175c.336-.11.68-.214 1.01-.298.33-.084.647-.168.99-.233h.04l-7.382 17.046-.052.116.647.84c.227.28.46.557.693.829.143.168.285.343.434.51l.46.531.518.589a71.844 71.844 0 0 0 48.144 23.818c.822.065 1.644.11 2.473.149a.55.55 0 0 1 .046-.266c.064-.414.136-.828.213-1.255l.04-.232a.4.4 0 0 1 .05-.24v-.045c.053-.278.104-.556.163-.834l.155-.777c.045-.252.097-.498.156-.744.017-.144.048-.287.09-.427l.117-.498.116-.504c.04-.168.085-.343.123-.511v-.052l.156-.647c0-.052 0-.103.045-.162.056-.245.121-.498.194-.756a76.5 76.5 0 0 1 .324-1.152c.045-.149.097-.297.136-.446.039-.149.078-.246.11-.362l.058-.188v-.052a.646.646 0 0 1 .052-.18v-.04c.104-.31.201-.647.311-.938l.194-.569a.782.782 0 0 1 0-.09s.052-.15.085-.227l.252-.699.045-.116a.09.09 0 0 0 0-.058c.072-.175.136-.343.201-.511l.162-.414c.117-.278.227-.557.343-.828.22-.518.447-1.029.648-1.527.11-.233.213-.46.33-.686l.104-.207a6.17 6.17 0 0 1 .207-.414.588.588 0 0 1 .045-.09c.045-.097.104-.194.156-.291.103-.214.213-.414.33-.647v-.032l.064-.123a26.83 26.83 0 0 1 1.069-1.76l.298-.459.077-.116v-.046l.052-.077.11-.162.188-.278c.337-.479.68-.951 1.036-1.41l.052-.065.291-.362.117-.15.408-.478c.032-.045.071-.084.104-.123l.155-.168a3.15 3.15 0 0 1 .2-.226c.072-.071.24-.272.37-.401.13-.13.375-.395.57-.589.576-.57 1.295-1.294 2.136-2.018-.647.556-1.178 1.1-1.657 1.565l-.233.233c-.078.078-.156.149-.22.22-.363.356-.713.73-1.05 1.106l-.259.291c-.246.278-.485.563-.712.854a13.57 13.57 0 0 0-.447.576c-.149.2-.24.304-.35.46l-.472.646-.039.058-.388.57-.24.375c-.117.174-.227.349-.337.524l-.039.064-.317.537-.045.071-.214.382c-.214.362-.414.724-.602 1.093l-.227.427c-.116.226-.233.453-.343.686l-.058.11c0 .064-.052.123-.084.187-.033.065-.117.24-.169.363-.24.498-.466 1.009-.686 1.526-.117.272-.227.55-.337.828a42.8 42.8 0 0 0-.317.822c-.104.278-.214.55-.31.828l-.079.22v.084l-.07.174-.046.136v.143c-.104.297-.2.601-.304.905a.414.414 0 0 0-.04.117c-.045.148-.096.297-.142.44-.13.413-.252.821-.375 1.235-.123.414-.201.712-.292 1.06-.052.176-.097.357-.142.531-.09.343-.181.686-.26 1.022-.077.337-.148.583-.213.88l-.194.867c-.065.291-.13.576-.181.867-.052.29-.123.588-.182.886-.058.298-.084.433-.123.647-.058.323-.123.647-.175.977-.051.33-.097.588-.149.88v.096l-.038.266a72.5 72.5 0 0 0 3.147.07 72.701 72.701 0 0 0 55.81-26.437c.991-1.19 1.943-2.42 2.83-3.68.065-.078.123-.162.181-.246l.57-.796c.188-.272.37-.55.55-.822l.272-.407-.343-.065c.182-.265.356-.53.531-.802l.046-.071c.395-.602.777-1.223 1.152-1.837.04-.08.085-.155.136-.227a.737.737 0 0 0 .065-.122 78.093 78.093 0 0 0 2.59-4.69h.33c.764.097 1.515.18 2.24.258l.817.085.984.09h.194l.77.065c.888.07 1.749.136 2.59.18l1.095.066h.2l1.257.058h2.5l2.052.039h7.492c.894 0 1.826 0 2.785-.065h.977l.991-.039 1.017-.045 1.774-.09c1.509-.078 3.076-.175 4.7-.305l.985-.077.959-.084 1.903-.169.15-.11c.176-.138.33-.304.452-.491a1.39 1.39 0 0 0 .33-1.068c-.077-.297-.29-.317-.932-.86l-.175-.155-.13-.11c-.12-.1-.233-.21-.336-.33a.905.905 0 0 1-.213-.336 1.9 1.9 0 0 1 .265-1.527c.15-.266.343-.506.57-.712l.188-.155h.038l.188-.13.175-.11.11-.064.058-.032.078-.045h.065l-.065.058.253-.123a.2.2 0 0 0 .084-.039h.045l.266-.103c.647-.162 2.078-.389 2.661-.48h.026a4.99 4.99 0 0 0 .816-.09l.44-.09c.233-.059.408-.084.563-.136h.078c.175-.058.342-.136.499-.233h.052l.259-.136a15.934 15.934 0 0 0 2.078-1.591c2.079-1.727 3.562-2.956 4.669-4.418.468-.601.867-1.252 1.191-1.94.243-.506.444-1.03.603-1.566.219-.713.37-1.445.453-2.187l-.246.104zM21.143 122.44c.337-.11.68-.213 1.01-.297-.304.09-.648.187-.984.297h-.026z"/>
            <path fill="url(#d)" fill-rule="nonzero" d="M191.054 84.889a11.924 11.924 0 0 1-.453 2.186c-.159.537-.36 1.061-.603 1.566a10.27 10.27 0 0 1-1.191 1.94c-1.107 1.462-2.59 2.691-4.669 4.419a12.69 12.69 0 0 1-2.337 1.727h-.052a2.332 2.332 0 0 1-.499.233h-.077c-.156.051-.33.077-.564.135l-.44.09c-.24.04-.518.066-.816.091h-.032c-.583.091-2.02.317-2.662.48l-.265.103h-.046a.2.2 0 0 1-.084.038l-.252.123.064-.058h-.064l-.078.045-.058.033-.11.064-.175.11-.188.13h-.039l-.188.155a2.873 2.873 0 0 0-.57.712 1.9 1.9 0 0 0-.265 1.526c.127.258.316.48.55.647l.13.11.175.155c.647.544.855.563.932.86a1.39 1.39 0 0 1-.33 1.068 2.051 2.051 0 0 1-.453.492l-.15.11-1.903.168-.958.084-.985.078c-1.625.129-3.192.226-4.7.304l-1.775.09-1.016.045-.991.04h-.984c-.959 0-1.891.051-2.785.064h-7.485l-2.053-.039h-2.454l-1.256-.058h-.201l-1.094-.065c-.849-.045-1.71-.11-2.59-.18l-.771-.066H141l-.984-.09-.797-.084c-.725-.078-1.476-.162-2.24-.259l-.35-.065a75.229 75.229 0 0 1-2.63 4.813 1.617 1.617 0 0 0-.135.226c-.389.647-.79 1.294-1.198 1.941-.175.272-.35.537-.53.802l.342.065c-.272.414-.544.821-.822 1.229l-.57.796a71.989 71.989 0 0 1-58.763 30.299c-1.056 0-2.105 0-3.147-.071l.039-.265c.11-.647.22-1.294.343-1.941.039-.213.077-.433.123-.647.045-.213.116-.589.181-.886.065-.298.117-.576.181-.867l.195-.867c.064-.297.136-.588.213-.88.078-.29.169-.646.26-1.022.045-.174.09-.355.142-.53.09-.35.194-.705.291-1.06.097-.357.246-.822.376-1.236.045-.143.097-.291.142-.44.007-.04.02-.08.039-.117.104-.304.2-.608.304-.905v-.143l.046-.135.07-.175v-.084l.079-.22c.097-.278.2-.55.31-.828.11-.278.208-.55.318-.822.11-.271.22-.556.336-.828.22-.517.447-1.028.687-1.526.052-.123.11-.246.168-.362.032-.061.06-.124.084-.188l.059-.11c.09-.188.181-.375.278-.563l.291-.55c.188-.368.389-.73.603-1.093.084-.149.168-.304.259-.453.22-.381.453-.757.693-1.125l.31-.472.318-.473.039-.058c.148-.213.31-.433.472-.647.162-.213.227-.31.35-.459.123-.149.291-.388.447-.576.226-.29.466-.575.712-.854l.259-.29c.337-.376.686-.751 1.049-1.107l.22-.22.233-.233c.48-.465 1.03-1.009 1.658-1.565-.842.737-1.56 1.449-2.137 2.018-.457.45-.89.926-1.295 1.423-.324.369-.648.75-.939 1.139l-.136.168c-.333.413-.643.845-.926 1.294l-.226.343-.136.2c0 .045-.059.097-.091.136l-.298.46-.648 1.028c-.142.239-.284.485-.42.73l-.065.124c-.122.21-.232.425-.33.646-.052.097-.11.194-.156.292-.123.232-.246.472-.356.711-.11.24-.22.453-.33.686a18.6 18.6 0 0 0-.648 1.526c-.116.272-.226.55-.343.828a50.61 50.61 0 0 0-1.017 2.775c-.11.31-.207.647-.31.938v.033l-.059.187v.052l-.058.188c-.02.125-.057.247-.11.362l-.136.446a57 57 0 0 0-.732 2.743c-.039.168-.084.343-.123.511a52.23 52.23 0 0 0-.479 2.174l-.155.776c-.059.278-.11.556-.162.834v.117c-.018.16-.049.317-.09.472-.079.427-.15.84-.215 1.255a.55.55 0 0 1-.045.265 71.844 71.844 0 0 1-50.617-23.986l-.518-.589-.46-.53c-.149-.168-.291-.343-.434-.511a42.62 42.62 0 0 1-.693-.828l-.647-.841.051-.116 7.382-17.045.15-.337.29-.647 4.28-9.884 3.387-7.82.305-.706v-.11l.136-.31.084-.194-.712-.078h-.085l-.647-.246-1.632-.647a431.241 431.241 0 0 1-6.792-2.73.194.194 0 0 1-.065-.045h-.052c-.751-.31-1.49-.646-2.195-.918h-.071l-.227-.104c-.971-.414-1.865-.808-2.733-1.19a89.532 89.532 0 0 1-4.26-2.005 21.975 21.975 0 0 1-2.694-1.604l-.246-.188a2.894 2.894 0 0 1-.266-.226l-.149-.143h-.064c-.156.078-.466.42-.499.363a.336.336 0 0 1-.084-.292c.09-.271.861-.271 2.046-.284h.44c1.561 0 2.48-.492 4.002-.505h.531c.169 0 .324-.446.492-.53h.052l3.613-.039h.868l11.196-.071H51.07c2.81 0 5.525.013 8.146.039 6.08.038 11.713.097 16.933.18h.589l2.415.046h1.84c41.409.763 54.126 2.659 54.126 2.659 3.115.323 6.12.647 9.066.918h.265l15.146 1.495 1.703.174a933.375 933.375 0 0 1 15.34 1.65l.382.045h.11a416.82 416.82 0 0 1 12.692 1.675c.575 1.45.944 2.975 1.094 4.528.039.42.058.848.058 1.294.01.365-.007.73-.052 1.093v.414c0 .104-.032.298-.051.46l.18-.15z" transform="translate(0 21.93)"/>
            <path fill="url(#e)" fill-rule="nonzero" d="M9.48 107.756a71.907 71.907 0 0 1-4.021-8.325c4.235-.091 8.336-.197 12.303-.317l-1.813 2.587-3.95 5.718-.13.195-1.295 1.94-1.094-1.798z" transform="translate(0 21.93)"/>
            <path fill="url(#f)" fill-rule="nonzero" d="M70.678 97.121l-6.288.265c-10.71.453-24.528 1.042-40.742 1.546l-5.873.182 7.479-10.855 4.96-7.174.213-.304.247-.362v-.039l.045-.058.343-.492.693.272.103.039.363.142.194.078.512.194.246.097.155.058h.065l1.373.53h.039l2.59.99c18.83 7.265 38.871 14.665 33.283 14.891z" transform="translate(0 21.93)"/>
            <g fill-rule="nonzero" opacity=".5">
                <path fill="url(#g)" d="M105.502 24.536a.479.479 0 0 1-.647.265l-1.69-.705-.136-.058-2.26-.964v16.819l-.959.084V22.64l-4.338-1.85-.156-.064a.479.479 0 0 1-.252-.647.473.473 0 0 1 .602-.272h.045l2.468 1.048 4.914 2.096 2.182.931h.04c.229.128.313.417.187.647v.007z" transform="translate(72.523 86.616)"/>
                <path fill="url(#h)" d="M13.197 2.154L1.133.15a.512.512 0 0 0-.485.213.485.485 0 0 0 .142.647.473.473 0 0 0 .181.065l5.634.931v30.403h.958V2.186l5.478.906a.48.48 0 0 0 .162-.938h-.006z" transform="translate(72.523 86.616)"/>
                <path fill="url(#i)" d="M59.793 10.298L47.729 8.3a.48.48 0 0 0-.464.749c.073.102.185.17.31.19l5.633.937v30.403h.951V10.35l5.479.906a.485.485 0 1 0 .155-.957z" transform="translate(72.523 86.616)"/>
            </g>
            <path fill="#C78082" fill-rule="nonzero" d="M130.762 135.927l-1.593-.575c-14.893-5.356-25.04-8.164-30.53-9.503-.985-.24-1.814-.433-2.494-.588a58.504 58.504 0 0 0-2.305-.48c-3.505-.62-6.849-1.222-10.03-1.804a1151.924 1151.924 0 0 1-19.322-3.655 814.682 814.682 0 0 1-9.953-2.018c-1.878-.395-3.652-.77-5.336-1.139a458.716 458.716 0 0 1-12.95-2.988 250.186 250.186 0 0 1-8.185-2.186c-.965-.279-1.845-.537-2.648-.79-2.59-.795-4.378-1.449-5.731-1.986l-.414-.161-.713-.291-.997-.447a11.664 11.664 0 0 0-3.963-1.293l-12.523-1.359a71.099 71.099 0 0 0 4.533 16.709 71.907 71.907 0 0 0 4.02 8.325l1.024 1.76v.038l.647 1.035c.175.278.35.557.531.828.182.272.447.699.68 1.042.233.343.557.821.842 1.229.052.071.104.136.149.207a59.981 59.981 0 0 0 1.722 2.329c.22.29.447.575.648.866l.648.841c.226.278.46.557.692.828.143.169.285.343.434.511l.46.53.518.59a71.844 71.844 0 0 0 50.585 23.998.55.55 0 0 1 .045-.265c.065-.414.136-.828.214-1.255l.039-.233a.4.4 0 0 1 .052-.239v-.097c.052-.278.103-.556.162-.834l.155-.777c.045-.252.097-.498.155-.744.018-.144.048-.287.091-.427l.117-.498.116-.504c.039-.168.084-.343.123-.511v-.052l.156-.647c0-.052 0-.103.045-.162.056-.245.12-.498.194-.756.104-.382.214-.77.324-1.152.045-.149.097-.297.136-.446.039-.149.078-.246.11-.362l.058-.188v-.052a.646.646 0 0 1 .052-.18v-.04c.104-.31.2-.647.31-.938l.195-.569a.782.782 0 0 1 0-.09s.052-.15.084-.227l.253-.699.045-.116a.09.09 0 0 0 0-.058c.071-.175.136-.343.201-.511l.162-.414c.116-.278.226-.557.343-.828.22-.518.447-1.029.648-1.527.11-.233.213-.46.33-.686l.103-.207a6.17 6.17 0 0 1 .208-.414l.045-.09c.045-.097.104-.194.155-.291.104-.214.214-.414.33-.647v-.032l.065-.123a26.83 26.83 0 0 1 1.069-1.76l.298-.459.077-.116v-.046l.052-.077.11-.162.188-.278c.337-.479.68-.951 1.036-1.41l.052-.065.291-.362.117-.15.408-.478c0-.045.071-.084.103-.123l.156-.168a3.15 3.15 0 0 1 .2-.226c.072-.071.24-.272.37-.401.13-.13.375-.395.57-.59.576-.568 1.294-1.293 2.136-2.017-.647.556-1.178 1.1-1.657 1.565l-.234.233c-.077.078-.155.149-.22.22-.362.356-.712.73-1.049 1.106l-.259.291c-.246.278-.485.563-.712.854a13.57 13.57 0 0 0-.447.576c-.149.2-.24.304-.35.46l-.472.646-.039.058-.389.57-.24.375c-.116.174-.226.349-.336.524l-.039.064-.317.537-.045.071-.214.382c-.214.362-.414.724-.602 1.093l-.227.427c-.116.226-.233.453-.343.686l-.058.11c0 .064-.052.123-.084.187-.033.065-.117.24-.169.363-.24.498-.466 1.009-.686 1.526-.117.272-.227.55-.337.828a42.8 42.8 0 0 0-.317.822c-.104.278-.214.55-.311.828l-.078.22v.084l-.07.174-.046.136v.143c-.104.297-.201.601-.305.905a.414.414 0 0 0-.038.117c-.046.148-.098.297-.143.44-.13.413-.252.821-.375 1.235-.124.414-.201.712-.292 1.06-.052.176-.097.357-.142.531-.091.343-.182.686-.26 1.022-.077.337-.148.583-.213.88l-.194.867c-.065.291-.13.576-.182.867-.051.29-.123.588-.18.886-.06.298-.085.433-.124.647-.058.323-.123.647-.175.977-.052.33-.097.588-.149.88v.096l-.039.266a72.5 72.5 0 0 0 3.147.07 72.928 72.928 0 0 0 55.74-26.456 57.27 57.27 0 0 0 2.83-3.681c.064-.078.123-.162.18-.246l-.239-.149z" opacity=".5"/>
            <path fill="url(#j)" fill-rule="nonzero" d="M176.128 102.704c-.077-.298-.291-.317-.932-.86l-.175-.156-1.729-.116-.958-.065-23.078-1.565-4.494-.304-5.55-.376h-.323l-12.22-.828-.951-.064-3.011-.207a42.633 42.633 0 0 0 3.011-.867l.363-.13.563-.213.22-.084.525-.233.298-.142.11-.058c.33-.161.64-.363.92-.602 1.184-1.048.077-1.94-2.073-2.691l-.531-.181-.42-.123a38.792 38.792 0 0 0-1.574-.414 121.093 121.093 0 0 0-13.3-1.94 13.022 13.022 0 0 0-7.292.342h-.078c-.888.33-1.733.764-2.518 1.294l-.098.065a12.57 12.57 0 0 0-.53.368l-.124.097-.187.143-.078.064c-1.198.964-1.852 1.799-2.014 1.766l-4.915-.892-2.02-.363a4.827 4.827 0 0 1-1.943-.77c-1.049-.704-1.69-1.707-2.991-2.529a6.681 6.681 0 0 0-.518-.29 6.322 6.322 0 0 0-.518-.24c-.73-.303-1.493-.52-2.273-.647h-.117a7.129 7.129 0 0 1-1.094-.278h-.058a5.54 5.54 0 0 1-.609-.259 12.2 12.2 0 0 1-.647-.382l-.447-.278a6.284 6.284 0 0 0-.466-.258 7.575 7.575 0 0 0-1.393-.492c-.259-.065-.55-.123-.88-.175h-.046c-.084 0-.835.078-1.638.181l-1.081.13h-.181a8.858 8.858 0 0 1-.732.071h-.046a2.087 2.087 0 0 1-.388-.084c-.149-.052-.227-.104-.253-.162a.11.11 0 0 1 0-.065c0-.103.13-.213.26-.33.336-.297.764-.646-.39-.789l-5.827-1.106c-3.503-.537-9.201-2.05-14.07-3.072a90.15 90.15 0 0 0-3.342-.647l-.175-.033-.75-.11c-3.517-.51-7.26-.847-11.164-1.125-1.567-.123-3.147-.227-4.76-.337h-.408l-.86-.058h-.726l-1.632-.11c-2.868-.2-5.828-.414-8.78-.685h-.318l-1.191-.11h-.052c-.647-.059-1.295-.13-1.942-.2a98.618 98.618 0 0 1-2.59-.298l-1.043-.123a117.434 117.434 0 0 0-3.723-.363h-.33c-2.643-.22-5.46-.388-8.42-.53-.005.203.008.407.04.608.02.135.02.272 0 .408v.33c0 .316.046.646.071.957v.116a69.27 69.27 0 0 0 .44 3.694 71.099 71.099 0 0 0 4.534 16.709 71.907 71.907 0 0 0 4.02 8.325l1.024 1.76v.038l.647 1.035c.175.278.35.556.531.828.182.272.447.699.68 1.042.233.342.557.821.842 1.229.052.07.104.135.149.207a59.99 59.99 0 0 0 1.722 2.328c.22.291.447.576.648.867l.647.841c.227.278.46.556.693.828.143.168.285.343.434.511l.46.53.518.59a71.844 71.844 0 0 0 50.585 23.966.55.55 0 0 1 .045-.265c.065-.414.136-.828.214-1.255l.039-.233a.4.4 0 0 1 .052-.24v-.038c.051-.279.103-.557.162-.835l.155-.776c.045-.252.097-.498.155-.744.018-.145.048-.288.091-.427l.117-.498.116-.505c.039-.168.084-.342.123-.51v-.052l.156-.647c0-.052 0-.104.045-.162.06-.246.125-.498.194-.757.104-.381.214-.77.324-1.151.045-.149.097-.298.136-.447.039-.148.078-.245.11-.362l.058-.187v-.052a.646.646 0 0 1 .052-.181v-.04c.104-.31.2-.646.31-.937l.195-.57a.782.782 0 0 1 .032-.09s.052-.149.085-.226l.252-.699.046-.116a.09.09 0 0 0 0-.059c.07-.174.136-.342.2-.51l.162-.415c.117-.278.227-.556.343-.828.22-.517.447-1.028.648-1.526.11-.233.214-.46.33-.686 0-.071.065-.136.104-.207.039-.071.136-.284.207-.414l.045-.09c.046-.097.104-.194.156-.292.103-.213.213-.414.33-.646v-.033l.065-.123a26.832 26.832 0 0 1 1.068-1.76l.298-.458.078-.117v-.045l.051-.078.11-.161.188-.279c.337-.478.648-.95 1.036-1.41l.052-.064.292-.363.116-.149.408-.478c.032-.045.071-.084.104-.123l.155-.168a3.15 3.15 0 0 1 .2-.227c.072-.07.24-.271.37-.4.13-.13.375-.395.57-.59.576-.569 1.295-1.293 2.137-2.018-.648.557-1.179 1.1-1.658 1.566l-.233.233-.22.22c-.363.355-.713.73-1.05 1.106l-.258.29c-.246.279-.486.564-.713.855a13.57 13.57 0 0 0-.446.575c-.15.201-.24.304-.35.46l-.473.647-.039.058-.388.569-.24.375c-.116.175-.226.35-.337.524l-.038.065-.318.537-.045.07-.214.383c-.213.362-.414.724-.602 1.093l-.227.427c-.116.226-.233.453-.343.685l-.058.11c0 .065-.052.123-.084.188-.033.065-.117.24-.169.362a36.377 36.377 0 0 0-1.023 2.355 42.8 42.8 0 0 0-.317.821c-.104.279-.214.55-.31.828l-.078.22v.084l-.072.175-.045.136v.142c-.104.298-.2.602-.304.906a.414.414 0 0 0-.04.116c-.044.149-.096.298-.142.44-.13.414-.252.822-.375 1.236-.123.414-.2.711-.292 1.06-.051.175-.097.356-.142.531-.09.343-.181.686-.259 1.022-.078.336-.149.582-.214.88l-.194.867c-.065.29-.13.575-.181.866-.052.291-.123.589-.182.887-.058.297-.084.433-.123.646-.058.324-.123.647-.174.977-.052.33-.098.589-.15.88v.097l-.038.265a72.5 72.5 0 0 0 3.147.071 72.108 72.108 0 0 0 14.278-1.643 72.064 72.064 0 0 0 41.578-24.975c.99-1.19 1.942-2.42 2.83-3.681.064-.078.122-.162.18-.246l.57-.796c.188-.271.37-.55.551-.821l.272-.408.48-.873v-.032c.407-.647.685-1.08 1.074-1.72l.24-.415.388-.647c.933-1.565 1.353-2.458 2.17-4.094h.11c.763.097 1.515.18 2.24.258l.816.084.984.091h.194l.77.065c.888.07 1.75.135 2.59.18l1.095.065h.201l1.256.059h2.454l2.053.038h7.492c.894 0 1.826 0 2.784-.064h.978l.99-.039 1.017-.045 1.775-.09c1.508-.078 3.075-.176 4.7-.305l.985-.078.958-.084 1.904-.168.149-.11c.177-.138.33-.304.453-.491.278-.281.422-.667.395-1.061z" transform="translate(0 21.93)"/>
            <path fill="url(#k)" fill-rule="nonzero" d="M57.766 142.959a72.035 72.035 0 0 1-39.214-22.57l-.518-.588-.46-.53c-.149-.17-.291-.344-.434-.512-.233-.272-.466-.55-.693-.828l-.647-.84c-.227-.292-.454-.577-.648-.868-.337-.427-.647-.86-.978-1.293-.33-.434-.498-.686-.744-1.035-.046-.072-.097-.136-.15-.207a58.465 58.465 0 0 1-.84-1.23c-.28-.42-.46-.692-.68-1.04l-.532-.803-.647-1.035v-.039c.46-.647.9-1.294 1.353-1.882a30.558 30.558 0 0 1 1.975-2.413c.227-.252.46-.492.693-.725l.272-.258.382-.35c.22-.2.447-.394.686-.582a7.32 7.32 0 0 1 .35-.278l.362-.272.376-.258c.13-.084.253-.169.389-.246.136-.078.259-.168.395-.246l.408-.24c.233-.122.466-.245.705-.362l.37-.174.381-.168.518-.22.518-.2.519-.176c.336-.11.68-.207 1.01-.297.33-.09.647-.168.99-.233h.04l.407-.078c.169 0 .33-.064.492-.084l.266-.039h.31l.318-.038h.466c.175 0 .337-.033.505-.04 1.548-.076 3.1.006 4.63.247 1.634.244 3.233.678 4.766 1.293a29.213 29.213 0 0 1 8.016 5.253c7.77 6.689 10.58 15.053 11.902 19.16 1.463 4.6 1.904 9.218 2.415 17.324z" opacity=".7" transform="translate(0 21.93)"/>
            <path fill="url(#l)" fill-rule="nonzero" d="M112.76 132.033a71.591 71.591 0 0 1-26.276 10.997 72.433 72.433 0 0 1-14.174 1.397c-1.056 0-2.105 0-3.147-.071 1.47-9.276 4.61-19.335 11.137-25.823.648-.647 1.483-1.482 2.474-2.336.304-.271.647-.53.958-.789l.648-.472.35-.24.381-.258a9.03 9.03 0 0 1 .415-.265l.401-.246.408-.233c.136-.084.279-.155.415-.226l.317-.156h.045l.104-.058.362-.161c.156-.072.318-.143.486-.207l.453-.175c.298-.11.648-.207.926-.298l.48-.123c.155-.038.317-.064.485-.097.169-.032.305-.058.466-.077h.052c.763-.11 1.536-.136 2.305-.078 4.177.317 7.033 3.034 10.128 5.99.188.175.369.356.55.537a41.26 41.26 0 0 1 8.852 13.468z" opacity=".7" transform="translate(0 21.93)"/>
            <path fill="url(#m)" fill-rule="nonzero" d="M112.76 132.033a71.591 71.591 0 0 1-26.276 10.997 37.952 37.952 0 0 1 1.58-6.87c1.23-3.694 5.582-13.636 15.845-17.62a41.325 41.325 0 0 1 8.852 13.493z" opacity=".9" transform="translate(0 21.93)"/>
            <path fill="url(#n)" fill-rule="nonzero" d="M57.766 142.959a72.035 72.035 0 0 1-39.214-22.57c2.493-5.13 7.33-12.426 16.836-19.264a29.213 29.213 0 0 1 7.997 5.266c7.77 6.689 10.58 15.053 11.901 19.16 1.528 4.684 1.969 9.302 2.48 17.408z" opacity=".9" transform="translate(0 21.93)"/>
            <path fill="url(#o)" fill-rule="nonzero" d="M43.19 76.641l.959.298.647.194 3.005.938 1.787.563.149.051.647.194.272.091 3.206 1.029 1.87.601 2.811.906.246.077 2.63.867c2.045.682 4.115 1.376 6.21 2.083l1.126.382a1352.46 1352.46 0 0 1 34.662 12.29 1031.48 1031.48 0 0 1 10.205 3.836c13.249 5.04 25.98 10.156 36.961 14.93l.44.194c17.328 17.941 12.687 11.194 19.438 28.484l52.638.938 6.37.58v-.123a.11.11 0 0 0 0-.065v-.796c.233-9.127.298-17.588.317-20.583.065-8.474.304-9.056.453-17.498-7.123-.763-3.377-1.837-33.85-4.114-8.482-.646-24.742-1.94-28.025-2.257-5.646-.505-1.392-4.49-7.925-5.175-4.119-.44-8.328-.854-12.375-1.242-6.579-.647-12.75-1.19-17.483-1.695l-.298-.032c-1.82-.2-3.425-.388-4.746-.576a336.385 336.385 0 0 1-15.23-2.471l-2.318-.433-1.444-.272-2.085-.401c-6.69-1.294-13.372-2.756-20.113-4.211L77.574 82.8l-3.309-.706-4.118-.873-.175-.039h-.13l-1.1-.233c-1.78-.368-3.568-.737-5.368-1.093l-3.626-.763-.253-.052a2.521 2.521 0 0 1-.304-.058l-.266-.065c-1.334-.252-2.674-.51-4.02-.757l-4.3-.782-.26-.046-.919-.161-3.704-.647h-.045l-.725-.117-.784-.129-.958-.155-.02.517z" opacity=".035" transform="translate(0 21.93)"/>
            <path fill="url(#p)" fill-rule="nonzero" d="M174.833 116.463l7.263 3.176 73.748 1.76-.027-3.248z" transform="translate(0 21.93)"/>
            <path fill="url(#q)" fill-rule="nonzero" d="M255.962 140.362c0 .123-.039.614-.052.79a.11.11 0 0 1 0 .064c-2.454.064-8.3-.175-9.92-.175-5.044 0-10.399-.065-11.532-.084l-.285-.103-80.644-27.716-11.72-4.043-13.151-4.528-2.39-.822c-9.186-3.13-18.379-6.25-27.578-9.36l-19.484-6.56-10.14-3.395-.732-.246-.285-.097-4.267-1.423-2.325-.777-.272-.097-1.094-.362a2.112 2.112 0 0 0-.285-.097l-1.774-.595-.272-.09-.732-.246-4.999-1.663-.136-.045-1.198-.42-.272-.091-.304-.104-2.85-.918c-.731-.252-1.47-.498-2.214-.744-.259-.09-.518-.181-.777-.259l-.958-.317v-.09l.965.304 1.554.491 1.981.647 2.63.835.265.084.097.032 1.942.608.143.045 5.866 1.844.752.233.284.09.285.091 3.2.996.278.084 2.344.731 2.525.79.926.29 15.392 4.78c.764.24 1.521.48 2.28.706l3.794 1.17c8.884 2.756 18.17 5.616 27.682 8.546 11.953 3.687 24.269 7.471 36.65 11.281l.207.065 6.857 2.148c53.409 16.41 64.87 18.814 93.743 27.715v.007z" transform="translate(0 21.93)"/>
            <path fill="url(#r)" fill-rule="nonzero" d="M255.523 115.052c-29.463-5.732-122.132-14.632-125.79-21.1 2.37-.207 2.849 1.546 5.219 1.339 26.853 7.18 46.086 4.372 120.74 15.62-.124 1.256-.124 2.782-.169 4.14z" transform="translate(0 21.93)"/>
            <path fill="url(#s)" fill-rule="nonzero" d="M252.255 117.73c-27.181-5.66-70.792-11.527-78.523-12.84-11.381-1.94-27.11-3.506-48.901-9.658 1.163-.129 2.134-.718 3.297-.853 21.674 6.837 102.135 15.816 124.112 21.346" opacity=".8" transform="translate(0 21.93)"/>
            <path fill="url(#t)" fill-rule="nonzero" d="M273.16 152.273l-6.779-.097-112.852-39.032-11.72-4.043-13.151-4.528-2.39-.821c-9.186-3.131-18.379-6.251-27.578-9.36l-19.484-6.56-10.14-3.396-.739-.246-.285-.097-4.267-1.423-2.324-.776-.272-.097-1.095-.362a2.112 2.112 0 0 0-.285-.097l-1.774-.596-.272-.09-.738-.246-4.999-1.662-.136-.046-1.198-.427-.272-.09-.317-.104-2.823-.912-2.221-.744c-.26-.09-.518-.18-.777-.258l-.959-.317v-.09l.965.31 1.522.478 1.988.647 2.661.841.266.09a.13.13 0 0 1 .07 0l1.943.609.143.039 5.77 1.85.757.239.317.103.285.084 3.147.99.279.09 2.344.732 2.59.802.926.284a4419.773 4419.773 0 0 0 15.398 4.774c.764.24 1.522.48 2.28.705l3.794 1.171c8.862 2.734 17.712 5.456 26.549 8.164l1.12.381a5108.397 5108.397 0 0 1 23.382 7.996l12.789 4.424 112.573 38.949c.13.019 5.925 1.765 5.99 1.765z" opacity=".8" transform="translate(0 21.93)"/>
            <path fill="url(#u)" fill-rule="nonzero" d="M288.72 118.92l-110.41-1.39-3.431-1.067 113.855 1.597" transform="translate(0 21.93)"/>
            <path fill="url(#v)" fill-rule="nonzero" d="M91.127 112.058h-.272c-.159 0-.316.026-.466.077-.169.032-.33.058-.486.097l-.479.123c-.31.09-.648.188-.926.298l-.453.174c-.169.065-.33.136-.486.207l-.363.162-.103.058h-.045a3.58 3.58 0 0 0-.318.155c-.103.059-.278.143-.414.227-.136.084-.272.149-.408.233-.136.084-.272.155-.402.246-.13.09-.278.174-.414.265-.136.09-.259.168-.382.259l-.35.239-.647.472c-.33.259-.648.518-.959.79-.997.847-1.839 1.681-2.5 2.334-6.526 6.47-9.66 16.547-11.137 25.824a78.076 78.076 0 0 1-2.473-.15c1.483-9.237 4.617-19.218 11.111-25.674 2.345-2.335 7.013-6.98 12.951-6.52l.421.104z" opacity=".4" transform="translate(0 21.93)"/>
            <path fill="url(#w)" fill-rule="nonzero" d="M9.48 107.756c1.91-2.588 3.794-4.567 6.475-6.029.438-.239.887-.455 1.347-.647a18.62 18.62 0 0 1 6.048-1.462 19.906 19.906 0 0 1 2.635 0 2.243 2.243 0 0 0-.505.039h-.466l-.317.039h-.09l-.506.071c-.166.013-.331.04-.492.084-.168.032-.272.045-.408.078h-.02c-.323.064-.653.142-.99.233-.33.084-.648.187-1.01.297l-.518.175-.518.2a6.144 6.144 0 0 0-.531.22c-.175.084-.246.104-.37.168-.122.065-.245.11-.368.175-.24.11-.473.233-.706.362l-.408.24a5.011 5.011 0 0 0-.395.245 3.95 3.95 0 0 0-.389.246l-.375.259a4.81 4.81 0 0 0-.363.272l-.35.278c-.24.187-.466.382-.686.582l-.382.35-.272.258c-.233.233-.466.472-.693.725a30.006 30.006 0 0 0-1.839 2.212 72.556 72.556 0 0 0-1.496 2.063l-1.042-1.733z" opacity=".4" transform="translate(0 21.93)"/>
            <path fill="url(#x)" fill-rule="nonzero" d="M.512 79.028c7.653.447 14.653.796 21.368 1.216.9.052 1.794.104 2.68.169l1.756.116.647.045h.058l3.432.24 1.004.077 2.96.214 5.082.4.797.059h.175l2.635.188a70.02 70.02 0 0 1 5.828.646 85.94 85.94 0 0 1 10.71 2.135c1.295.343 2.532.705 3.684 1.067.648.207 1.296.408 1.943.647l.285.084c.693.22 1.373.427 2.06.647a144.97 144.97 0 0 1 5.218 1.605c3.652 1.203 6.398 1.979 8.541 2.671 18.448 5.984 24.606 7.989 28.356 9.302 7.122 2.516 17.34 5.777 21.821 7.575.836.336 1.677.647 2.52.964l.226.084c15.54 5.602 32.79 6.643 49.316 6.637 8.063.027 16.11-.72 24.03-2.232 2.713-.524 6.222-1.54 7.194-4.12.647-1.76-.072-3.668-.751-4.936a1264.924 1264.924 0 0 1-21.53-1.72c-6.03-.531-12.207-1.016-17.996-1.456-9.59-.738-18.13-1.372-23.181-1.98a331.012 331.012 0 0 1-14.278-2.037c-2.785-.432-5.56-.908-8.328-1.43-8.418-1.52-16.835-3.234-25.292-5.013l-.279-.065c-8.657-1.798-17.412-3.635-26.412-5.324-7.9-1.487-15.981-2.865-24.354-3.997-.602-.09-1.21-.168-1.82-.246l-1.696-.188c-1.619-.174-4.339-.44-8.017-.711-1.346-.104-2.81-.2-4.403-.304a95.991 95.991 0 0 1-4.183-.369h-.447l-1.398-.149-.648-.077c-2.83-.324-5.886-.647-9.234-.88h-1.165l-1.658-.09-2.629-.22c-1.89-.091-3.833-.162-5.828-.24h-.343l-8.482-.33.026 1.326z" opacity=".454" transform="translate(0 21.93)"/>
            <path fill="url(#y)" fill-rule="nonzero" d="M175.338 104.295l-.149.11-1.903.168-.959.084-.984.078c-1.625.13-3.192.226-4.701.304l-1.774.09-1.017.046-.99.039h-.978c-.959 0-1.891.051-2.785.064h-1.748c-8.703-1.416-14.926-2.788-17.483-4.081a3.53 3.53 0 0 1-1.108-.764.737.737 0 0 1-.116-.161h.2l5.964-.647 2.182-.233c.72.18 1.483.356 2.28.537 5.827 1.293 13.74 2.587 23.078 3.88l.958.13 2.033.356z" transform="translate(0 21.93)"/>
            <path fill="url(#z)" fill-rule="nonzero" d="M139.867 101.216c6.164 1.294 14.796 2.587 25.027 3.881l-1.017.045-.99.04h-1.004c-.959.032-1.891.051-2.785.064h-7.492a542.442 542.442 0 0 1-18.72-3.396c1.761-.188 3.238-.912 4.973-1.1l.356.084c.512.117 1.056.227 1.62.343l.032.039z" opacity=".8" transform="translate(0 21.93)"/>
            <path fill="url(#A)" fill-rule="nonzero" d="M190.957 83.123a7.82 7.82 0 0 1-.052 1.093v.414c0 .104-.032.298-.052.46v.22l-.039.252v.142a.427.427 0 0 1-.045.233v.052a.052.052 0 0 1 0 .045.523.523 0 0 1 0 .142.989.989 0 0 1-.071.272v.065c-.013.09-.035.179-.065.265 0 .09-.058.2-.084.304a10.84 10.84 0 0 1-1.794 3.506c-1.107 1.455-2.59 2.69-4.675 4.418l-.233.194-.538.446c-.233.188-.44.356-.647.498l-.272.201-.188.123h-.058a3.096 3.096 0 0 1-.518.285h-.052l-.168.064-.078.033-.136.038h-.246l-.194.04h-.091l-.44.09h-.272l-.356.032h-1.01a9.074 9.074 0 0 0-1.173.2l-.408.117-.168.052h-.259l-.104.039h-.116l-.065.038-.097.046h-.084l-.078.045h-.058l-.11.065-.175.11-.188.129h-.039l-.187.155a2.873 2.873 0 0 0-.57.712 1.9 1.9 0 0 0-.266 1.526.906.906 0 0 0 .214.337c.102.12.215.23.337.33l.13.11.174.155c.647.543.855.563.932.86a1.39 1.39 0 0 1-.33 1.068 2.051 2.051 0 0 1-.453.491l-.149.11-1.904.168-.958.084-.984.078c-1.626.123-3.193.22-4.701.304l-1.775.09-1.016.046-.991.039h-.978c-.958 0-1.89.052-2.784.064h-7.518l-2.053-.038h-2.454l-1.256-.059h-.227l-1.094-.064c-.848-.046-1.71-.11-2.59-.181l-.77-.065h-.195l-.984-.09-.816-.085c-.725-.077-1.476-.161-2.24-.258h-.33a99.91 99.91 0 0 1-2.092-.285l-2.344-.369-.713-.123c-.835-.148-1.618-.29-2.337-.433-.298-.052-.583-.11-.855-.168l-1.593-.33-.952-.214-.647-.135-.926-.214-1.794-.42c-5.057-1.21-10.542-2.66-16.117-4.192l-1.522-.42-4.578-1.294-4.565-1.294-2.57-.738-3.983-1.132-7.498-2.102-.648-.175h-.052l-.705-.194-.952-.265-.175-.052-.46-.129-.188-.045-.123-.039-.207-.058-.492-.136-.53-.2c-1.86-.512-3.64-.99-5.33-1.424l-.31-.077-.402-.104c-.648-.181-1.386-.356-2.118-.537h-.13l-1.366-.336-2.078-.485-.253-.059-.382-.09-1.295-.298a61.763 61.763 0 0 0-1.651-.368h-.084l-.188-.04-1.483-.316-.194-.039a49.315 49.315 0 0 0-1.34-.278h-.11c-3.096-.647-6.12-1.19-9.066-1.688h-.233l-.855-.136-.757-.13h-.059l-1.191-.187-2.474-.382-2.447-.356-1.205-.161-.382-.052-.822-.117h-.2l-.577-.103h-.052l-.505-.065L37 80.73l-.997-.123-.279-.033-1.793-.213a3.24 3.24 0 0 0-.35-.039l-.868-.097h-.058l-.408-.013h-.11l-.33-.032-.35-.04h-.149l-.395-.044h-.22a36.3 36.3 0 0 0-1.295-.136h-.26l-.478-.052-.7-.071H27.286l-.647-.071-1.1-.104-.402-.039-.401-.058h-.454l-.446-.039h-.227l-.434-.038-.945-.091h-.214l-.499-.052-1.08-.09h-.105l-.388-.033-.952-.084-1.49-.13-2.304-.18-.59-.046-.867-.07-2.403-.195-1.78-.142h-.35l-.79-.071H6.76l-5.866-.362H.693v-.757a3.554 3.554 0 0 0-.039-.608L.648 76v-.647-4.741h.485c2.772-.136 5.29-.363 7.59-.647l.582-.072h.24l.317-.045c.304-.045.609-.084.906-.136 2.008-.31 3.827-.647 5.453-1.035h-.033a76.165 76.165 0 0 0 4.792-1.293l.389-.11.194-.065.524-.175c.894-.297 2.079-.718 3.413-1.21.168-.051.33-.116.505-.18l1.353-.499.492-.187 1.541-.576 3.134-1.19.771-.298.168-.064h.123l.13-.052.11-.045 1.03-.395.984-.388c.22-.078.44-.168.647-.252 2.862-1.12 5.142-2.012 7.123-2.801l2.066-.841.395-.168.647-.26c.72-.31 1.399-.6 2.066-.911l.647-.291.693-.324.402-.187.324-.162c7.174-3.467 5.77-3.668 16.188-9.134 3.192-1.675 6.333-3.234 10.768-5.686.292-.155.583-.317.88-.492.862-.472 1.775-.99 2.74-1.54l.24-.141c.077-.046.161-.085.226-.13l.732-.414.647-.369 1.73-1.009c7.919-4.528 13.662-7.827 20.312-9.58 4.339-1.138 8.91-1.138 18.047-1.125 1.632 0 3.095 0 4.41.077 3.193.077 6.374.434 9.505 1.068a55.91 55.91 0 0 1 10.36 3.33c.862.37 1.691.751 2.5 1.152h.266l.214.117.084.045h.084l.123.065c.06.025.12.055.175.09.35.181.693.363 1.03.55l.46.252.912.524c.382.22.758.453 1.12.647l.68.434.382.246.26.168.537.362a.59.59 0 0 1 .103.071l.104.071.356.24.214.155.473.336c.2.136.388.278.589.42a70.61 70.61 0 0 1 2.195 1.695c.317.253.647.505.932.764.285.259.648.563 1.023.854l.907.789c.343.31.693.647 1.036.931 1.081.97 2.156 1.941 3.238 3.015l1.088 1.041c.602.576 1.204 1.165 1.82 1.76 1.501 1.468 2.842 2.768 4.091 4.062a57.08 57.08 0 0 1 6.029 7.245c2.247 3.234 4.04 6.973 7.557 14.425l.175.356c.647 1.371 1.223 2.64 1.69 3.881.575 1.45.944 2.975 1.094 4.528a2.146 2.146 0 0 0-.22 1.223z" transform="translate(0 21.93)"/>
            <path fill="url(#B)" fill-rule="nonzero" d="M190.957 83.123a7.82 7.82 0 0 1-.052 1.093v.414c0 .104-.032.298-.052.46v.22l-.039.252v.142a1.635 1.635 0 0 1-.071.388v.11a11.165 11.165 0 0 1-.842 2.503 10.84 10.84 0 0 1-1.191 1.941c-1.107 1.456-2.59 2.691-4.675 4.418a15.779 15.779 0 0 1-2.111 1.604h-.052a2.332 2.332 0 0 1-.499.233h-.064c-.156.052-.33.078-.564.136l-.44.09c-.24.04-.518.065-.816.091h-.032a9.56 9.56 0 0 0-2.681.46l-.266.103h-.045l-.084.039-.253.123.065-.058.052-.046a.324.324 0 0 0 .097-.09c.142-.123.272-.246.401-.369a14.638 14.638 0 0 0 1.82-1.98c.481-.629.894-1.307 1.23-2.024l.052-.117c.226-.485.417-.987.57-1.5.297-.992.48-2.014.544-3.047v-.46a.846.846 0 0 0 0-.18v-.486a1.099 1.099 0 0 0-.078-.336 36.64 36.64 0 0 1-.46-2.264 25.857 25.857 0 0 0-2.434-7.232c-.059-.123-.11-.246-.175-.362-.285-.608-.563-1.19-.823-1.753-.168-.343-.323-.68-.479-1.01-.2-.42-.388-.821-.582-1.216-.052-.122-.11-.239-.169-.355-2.363-4.942-3.885-7.925-5.737-10.531a56.46 56.46 0 0 0-3.516-4.529 64.434 64.434 0 0 0-2.7-2.962c-1.295-1.333-2.681-2.672-4.229-4.185l-.466-.453c-.473-.466-.945-.919-1.411-1.365-.648-.608-1.25-1.21-1.872-1.798-5.329-5.059-10.503-9.406-17.386-12.821a50.42 50.42 0 0 0-2.59-1.19 54.87 54.87 0 0 0-3.93-1.527l-.169-.059a59.9 59.9 0 0 0-3.97-1.21c-1.113-.297-2.097-.517-2.654-.646a41.205 41.205 0 0 0-3.562-.595 87.2 87.2 0 0 0-10.794-.57c-4.688 0-8.217 0-11.125.13a43.61 43.61 0 0 1 5.284-1.76c4.339-1.138 8.91-1.138 18.047-1.132 1.645 0 3.121 0 4.436.085 3.185.063 6.357.414 9.48 1.047a55.884 55.884 0 0 1 10.36 3.325c.861.376 1.69.725 2.5 1.126h.265l.214.116.084.046h.084l.123.064c.06.025.12.056.175.09.35.182.693.363 1.03.55l.46.253.912.524c.356.207.712.42 1.056.647l.064.039.648.433.382.246.945.647c4.371 2.995 8.133 6.468 12.11 10.31.601.577 1.204 1.165 1.819 1.76 1.502 1.469 2.842 2.769 4.092 4.063a57.488 57.488 0 0 1 6.022 7.245c2.24 3.195 4.034 6.96 7.544 14.393.058.103.103.213.162.323.647 1.358 1.217 2.587 1.677 3.842a16.85 16.85 0 0 1 1.107 4.529c.152.508.229 1.035.227 1.565z" opacity=".15" transform="translate(0 21.93)"/>
            <path fill="url(#C)" fill-rule="nonzero" d="M.298 75.95l.039.594c-.007.204.006.407.039.608.038.2 0 .414.038.647v.078c3.316.168 6.223.33 6.243.356.019.025 0 .032.064.045l2.221.175h.35c3.043.232 7.997.646 10.555.828h.324c.822.07 1.295.116 1.295.129l5.18.479 3.8.362.318.032.9.09h1.295c1.444.162 2.901.35 4.384.55h.039c.244.014.486.046.725.098h.097c1.082.148 2.182.31 3.283.478l.253.04c1.791.27 3.613.562 5.465.872h.065l.757.13.855.136h.233c.058 0 .279.097.35.11 4.364.737 7.272 1.293 9.292 1.72h.052l1.903.388.337.072.473.09h.084l.939.117c2.784.342 5.226.608 7.492.944h.045l1.224.188 1.094.161 1.418.214c.648.084 1.34.155 2.086.258l.874.13h.077l.428.071h.602c.163.018.326.046.486.084.194.017.386.047.576.09h.123l.738.124h.188l.647.11h.04l.589.103c3.043.543 5.374.97 7.122 1.294 2.979.556 4.203.815 4.203.815 1.327.284 2.337.504 3.166.698 2.014.48 2.998.777 4.986 1.236.849.194 1.872.414 3.238.692 3.348.686 5.828 1.197 6.993 1.404 2.441.414 2.299.362 4.475.647h.155c.797.103 1.884.252 3.47.478l.344.052.44.058c2.3.33 4.183.57 5.757.75l.952.104 1.042.117c2.59.265 4.1.336 5.18.407h.402l.37.033h.167c1.34.129 3.886.349 5.763.498h.855c.81 0 2.59.077 4.196.129h.751c5.828.22 11.183.285 16.616.31h14.291a.2.2 0 0 0 .084-.038h.045l.085-.052h.278c.323-.122.654-.221.99-.298h.053c.462-.089.929-.149 1.398-.18h.324l.518-.052h.078l.298.426h.433l.214-.045.35-.09h.052c.095-.032.188-.071.278-.117h.052a12.69 12.69 0 0 0 2.337-1.727c2.079-1.727 3.562-2.956 4.67-4.418.467-.6.867-1.252 1.19-1.94.243-.506.445-1.029.603-1.566.219-.713.37-1.445.453-2.187l-.233.195-.57.472-.7.575a6.754 6.754 0 0 1-1.942 1.294h-.077c-.156.052-.33.084-.564.136l-.44.09c-.94.175-2.292.279-3.685.44h-.24a1.757 1.757 0 0 1-.686.072 5.069 5.069 0 0 0-.99 0c-.874.077-1.898.29-3.095.388-.344 0-.7.045-1.069.045H175.5l-2.26.084h-.958c-1.412 0-3.018 0-4.857-.136a96.268 96.268 0 0 1-11.487-.77c-2.693-.362-5.471-.899-10.004-1.85l-.298-.064-2.454-.511-1.405-.304c-1.904-.408-4.96-1.087-9.02-1.909-.648-.122-1.82-.362-2.947-.608-1.126-.245-2.279-.485-3.16-.647l-.951-.194a44.21 44.21 0 0 1-1.554-.323c-3.678-.9-16.033-3.344-21.77-3.881-1.626-.149-4.086-.375-7.123-.576l-1.47-.09c-4.093-.266-7.719-.15-8.256-.214H72.232c-1.807 0-12.95 0-21.867-.039H48.79c-2.318-.032-5.827-.097-9.26-.162l-7.711-.155h-1.354c-2.59-.045-4.778-.084-5.005-.07l-3.503-.053h-.052l-1.904-.032h-.524L9.266 76.15H8.71c-.647 0-1.852 0-3.652-.04H.311v.046l-.013-.207z" opacity=".5" transform="translate(0 21.93)"/>
            <path fill="url(#D)" fill-rule="nonzero" d="M.227 71.266H.31c2.59-.155 5.517-.427 8.71-.867l.31-.039.291-.045c2.746-.395 5.686-.912 8.768-1.591l1.107-.253.732-.174.291-.065c4.041-.967 8.027-2.15 11.94-3.545l.357-.123c3.192-1.151 5.86-2.264 8.03-3.176 3.12-1.294 5.587-2.471 8.495-3.94l.395-.193a983.57 983.57 0 0 0 6.384-3.312c9.39-4.917 16.189-8.461 21.142-11.237l.79-.44c1.49-.84 2.817-1.61 3.996-2.328l.647-.388c1.295-.822 2.46-1.572 3.445-2.284a25.075 25.075 0 0 1 7.81-4.094c1.722-.524 8.417-2.459 14.471.802.587.312 1.15.667 1.684 1.06 1.56 1.113 9.713 9.238 17.807 13.662 3.885 2.142 9.11 3.992 14.162 5.525 3.639 1.106 7.2 2.05 10.12 2.814a49.183 49.183 0 0 0 14.304.976c1.38-.097 2.83-.232 4.345-.446 1.516-.213 3.07-.647 3.633-1.863.189-.417.252-.88.181-1.332-.077-.764-.174-1.818-.297-2.892-1.25-1.294-2.59-2.587-4.093-4.062-.615-.595-1.217-1.184-1.82-1.76l-1.087-1.041a125.258 125.258 0 0 0-3.238-3.015c-.343-.317-.693-.647-1.036-.931l-.907-.79c-.343-.29-.647-.575-1.023-.853-.375-.278-.615-.511-.932-.764a70.612 70.612 0 0 0-2.195-1.694c-.2-.143-.389-.285-.59-.42l-.472-.337-.214-.155-.356-.24-.104-.071a.59.59 0 0 0-.103-.071l-.538-.362-.259-.169-.382-.245-.647-.434c-.363-.234-.736-.45-1.12-.647l-.913-.524-.46-.252c-.337-.187-.68-.369-1.03-.55a1.108 1.108 0 0 0-.175-.09l-.123-.065h-.084l-.084-.045-.214-.117h-.265a49.454 49.454 0 0 0-2.5-1.151 55.91 55.91 0 0 0-10.36-3.332 54.537 54.537 0 0 0-9.506-1.047 112.077 112.077 0 0 0-4.41-.078c-9.136 0-13.708 0-18.046 1.125-6.65 1.754-12.394 5.046-20.313 9.58l-1.73 1.01-.647.368-.731.414c-.065.046-.15.085-.227.13l-.24.142c-.964.55-1.877 1.068-2.739 1.54-.298.174-.589.336-.88.491-4.436 2.452-7.576 4.011-10.769 5.686-10.36 5.466-8.987 5.667-16.188 9.134l-.324.162-.401.187-.693.324c-.214.103-.427.194-.648.291-.647.31-1.347.602-2.065.912l-.648.259-.395.168-2.065.841c-1.943.79-4.229 1.682-7.123 2.8l-.648.253-.984.388-1.03.395-.11.045-.13.052h-.193l-.169.065-.77.297-3.121.996-1.542.576-.492.188-1.353.498c-.175.064-.337.13-.505.18-1.334.493-2.519.913-3.413 1.21l-.524.175a52.896 52.896 0 0 1-5.906 1.482 87.086 87.086 0 0 1-6.54 1.035c-2.55.31-5.394.562-8.54.73v.214l-.052.757z" opacity=".7" transform="translate(0 21.93)"/>
            <path fill="url(#E)" fill-rule="nonzero" d="M168.442 45.598a3.62 3.62 0 0 1-.44 1.617 4.532 4.532 0 0 1-2.493 1.94 20.61 20.61 0 0 1-6.404 1.185 40.263 40.263 0 0 1-3.07.038c-2.136-.038-4.293-.22-6.255-.452a2.761 2.761 0 0 1-.324-.04 90.76 90.76 0 0 1-4.571-.685l-.777-.09-.518-.098-.37-.077-.686-.136h-.077l-.738-.162h-.175l-.486-.11-.376-.097-.388-.09h-.045l-.499-.13-.389-.11-.576-.168c-.492-.149-.984-.31-1.47-.479l-.738-.258-.77-.291a43.257 43.257 0 0 1-2.118-.9l-.188-.09-1.165-.563-.428-.226a16.044 16.044 0 0 1-.938-.511 1.133 1.133 0 0 1-.227-.13l-.531-.297-.557-.343a30.48 30.48 0 0 1-1.399-.906c-.22-.142-.433-.29-.647-.44a30.371 30.371 0 0 1-1.884-1.41c-.415-.33-.823-.647-1.211-1.002-.389-.356-.79-.693-1.179-1.055a39.682 39.682 0 0 1-3.238-3.441l-.226-.291-.188-.298c-.032-.052-.052-.103-.078-.155a5.069 5.069 0 0 1-.207-.466 4.15 4.15 0 0 1-.227-1.294 4.22 4.22 0 0 1 .311-1.546l.136-.284c.047-.093.1-.184.156-.272.052-.084.116-.175.175-.259l.2-.252.227-.233a3.84 3.84 0 0 1 .926-.647.648.648 0 0 1 .149-.077l.084-.259.123-.052h.052l.233-.07h.104a13.917 13.917 0 0 1 1.521-.337c.266-.04.363-.065.55-.097l.5-.065a33.057 33.057 0 0 1 4.797-.246h.706c1.677.045 3.426.181 5.18.382l.648.077c.855.104 1.71.22 2.558.35l.395.058c.124.013.247.032.369.058l.647.11 1.295.22c.246.045.493.084.732.136l1.172.22.648.123 1.217.252 1.179.252c.783.169 1.534.343 2.246.511l.506.123c.398.097.79.22 1.172.369h.038c.208.084.402.175.596.272.061.025.12.055.175.09.35.181.693.363 1.03.55l.46.252.912.524c.382.22.751.453 1.12.647l.648.434.382.245.26.169c.368.245.737.491 1.1.744l.214.155.472.336c.201.136.389.278.59.42.744.55 1.476 1.12 2.195 1.695.317.253.647.505.932.764.285.258.68.562 1.023.854l.907.789c.343.31.693.647 1.036.931 1.081.97 2.156 1.973 3.238 3.015l1.03 1.08z" opacity=".9" transform="translate(0 21.93)"/>
            <path fill="url(#F)" fill-rule="nonzero" d="M158.276 73.096l7.058-.53-11.915-10.842-7.997.395z" opacity=".9" transform="translate(0 21.93)"/>
            <path fill="url(#G)" fill-rule="nonzero" d="M183.05 72.307l3.594.065-4.533-10.35-3.393.078z" opacity=".9" transform="translate(0 21.93)"/>
            <path fill="url(#H)" fill-rule="nonzero" d="M.298 75.95h25.04l4.733.083H52.16c4.196.04 9.013.058 15.773 0h17.05l2.59.04h2.182l1.224.038 1.03.039.764.032h.647l.81.039c.524 0 1.049.052 1.573.09l.518.033 1.023.064c1.198.097 2.377.194 3.555.31l1.01.104c1.522.169 3.05.363 4.624.59l2.098.329 1.075.181c.822.136 1.65.278 2.5.44l.86.162.609.116c1.845.362 6.74 1.359 12.07 2.452l.952.2 5.49 1.139c4.74.99 8.29 1.746 11.009 2.335l2.467.53.304.065c5.472 1.164 6.76 1.436 9.772 1.798l1.353.156 1.353.136 1.444.135 1.347.11c1.192.09 2.344.169 3.458.22l.906.046 1.684.051 1.943.04h4.13l1.412-.04.9-.039h.648l1.399-.077h.647l2.318-.175h.473l.473-.039c3.393-.33 6.346-.763 8.729-1.17.015-.105.043-.207.084-.304 0-.097.045-.182.064-.266v-.064c.013-.094.037-.185.072-.272a.523.523 0 0 0 0-.142.052.052 0 0 0 0-.046v-.032a1.48 1.48 0 0 1 .045-.233v-.142l.039-.252v-.22c.01-.154.027-.308.052-.46.006-.094.006-.19 0-.284v-.13c.032-.375.051-.73.051-1.093a72.42 72.42 0 0 1-7.304 1.52 73.358 73.358 0 0 1-3.334.46l-.648.07c-3.01.317-6.04.435-9.065.356-.926 0-1.82-.051-2.688-.103a92.454 92.454 0 0 1-9.978-1.184 191.03 191.03 0 0 1-11.403-2.232l-.337-.077c-.835-.188-1.638-.382-2.428-.576-6.527-1.591-11.61-3.195-17.16-4.58l-.952-.239-.615-.149c-12.743-3.04-24.217-3.312-44.161-3.144h-4.747l-4.338.046c-9.713.103-12.038.446-22.98.931h-.24c-3.42.149-7.66.317-13.21.492h-.499l-1.385.045H29.63l-1.748.045-3.523.09h-.913l-3.71.072h-.648l-2.033.039-3.989.045H.253v.647l.045.802z" transform="translate(0 21.93)"/>
            <path fill="#C1D0D1" fill-rule="nonzero" d="M188.14 95.375c-1.366 0-2.979-.058-4.785-.078h-8.043c-2.797.059-5.555.162-9.065.298-2.02.078-3.62.149-4.934.233-3.193.207-4.72.504-6.573 1.164-4.707 1.676-6.352 3.881-6.727 4.392a11.433 11.433 0 0 0-1.347 2.588c-.32.856-.527 1.75-.616 2.659a9.15 9.15 0 0 0 0 1.332v.104c.02.334.059.666.117.996.648 3.713 3.49 5.938 4.863 6.986l.071.052c.382.265 2.325 1.494 6.508 2.451a50.893 50.893 0 0 0 10.03 1.249c1.58.045 3.16 0 4.753-.039l.958-.045c1.108-.058 2.221-.136 3.348-.233l.492-.039h.233l.467-.045.427-.045 1.256-.156 1.295-.194h-.207l-.414.078c-.298.065-.616.116-.933.155h-.596c-.599.034-1.191.148-1.76.337l-.182.032h-.143l-.22.09h-.162l-1.347.078-1.599.065h-.971c-.512 0-1.043 0-1.58.039h-1.651c-1.386 0-2.869-.065-4.442-.175h-.395a69.468 69.468 0 0 1-4.65-.518c-4.306-.646-6.274-1.332-8.094-2.464-.35-.214-.764-.472-1.21-.79a10.617 10.617 0 0 1-3.95-4.832 10.205 10.205 0 0 1-.687-3.234v-.103a11.328 11.328 0 0 1 0-1.326 11.478 11.478 0 0 1 .79-3.267c1.606-3.804 4.992-5.382 6.695-6.184 1.554-.725 2.992-1.1 6.36-1.436.647-.065 1.391-.13 2.22-.194 6.618-.524 11.52-.53 11.52-.53h2.46c4.494 0 8.574 0 12.174.051l.246.498z"/>
            <path fill="#C1D0D1" fill-rule="nonzero" d="M180.37 107.07c-.211.058-.43.08-.648.065a23.953 23.953 0 0 0-1.6-6.28 27.463 27.463 0 0 0-2.88-5.519l-.253-.368h.492c.09.122.175.245.252.362a29.742 29.742 0 0 1 3.885 8.319 24.01 24.01 0 0 1 .752 3.421z"/>
            <path fill="url(#I)" fill-rule="nonzero" d="M123.426 55.23a25.026 25.026 0 0 0-5.575 10.201 65.497 65.497 0 0 0-35.161-.886l.647-15.079a28.638 28.638 0 0 1 7.99-3.105c7.771-1.714 14.136.363 18.475 1.773a47.85 47.85 0 0 1 13.624 7.096z" opacity=".7" transform="translate(0 21.93)"/>
            <path fill="url(#J)" fill-rule="nonzero" d="M72.31 53.878v.039a29.411 29.411 0 0 0-.726 4.618 44.809 44.809 0 0 0 .201 7.853l-20.72 3.325c-.027-2.613-.048-5.23-.066-7.853 10.219-3.88 16.189-6.158 18.313-6.986.621-.24 2.92-1.184 2.998-.996z" opacity=".3" transform="translate(0 21.93)"/>
            <path fill="url(#K)" fill-rule="nonzero" d="M43.572 64.836l.065 6.352-11.053 1.1.064-3.597z" opacity=".2" transform="translate(0 21.93)"/>
            <path fill="url(#L)" fill-rule="nonzero" d="M29.495 72.74c0-.562.039-1.15.032-1.765-.006-.615 0-1.294-.064-1.94l-7.959 1.526-.135 2.587 8.126-.407z" opacity=".2" transform="translate(0 21.93)"/>
            <path fill="url(#M)" fill-rule="nonzero" d="M18.202 71.343l-.071 2.53-8.49.233-.064-1.941z" opacity=".4" transform="translate(0 21.93)"/>
            <path fill="url(#N)" fill-rule="nonzero" d="M7.576 72.54v1.727h-6.21v-1.449z" opacity=".3" transform="translate(0 21.93)"/>
            <path fill="#B0BDBD" fill-rule="nonzero" d="M49.122 104.878a260.458 260.458 0 0 0-.415-11.47c-.188-3.28-.42-6.177.182-10.162.286-1.913.719-3.8 1.295-5.647l-.402.188c-.22.698-.44 1.487-.647 2.354-.52 2.23-.84 4.5-.959 6.786-.103 2.92.027 5.845.389 8.746.267 3.04.373 6.094.317 9.146l.24.059zM32.525 102.549c-.194 0 0-.045-.194-.065a42.33 42.33 0 0 1-.848-4.87 28.325 28.325 0 0 1 1.25-11.884c.155-.466.265-.795.408-1.17l.323-.124a32.084 32.084 0 0 0-1.295 4.897 32.628 32.628 0 0 0 .356 13.216zM19.782 98.338c.071.834.266 1.766.414 2.995a2.71 2.71 0 0 1-.33-.046c-.24-1.882-.492-3.5-.511-4.786a17.449 17.449 0 0 1 .537-5.208c.208-.74.467-1.464.777-2.167l.363-.11c-.449.88-.786 1.812-1.004 2.775a18.282 18.282 0 0 0-.363 4.93c.026.485.059.892.117 1.617zM9.324 100.44a23.84 23.84 0 0 1 .13-8.823l-.31.045a24.912 24.912 0 0 0-.48 5.324c.026 1.148.13 2.294.31 3.428l.35.026z"/>
            <path fill="url(#O)" fill-rule="nonzero" d="M168.442 45.598a3.62 3.62 0 0 1-.44 1.617 4.532 4.532 0 0 1-2.493 1.94 20.61 20.61 0 0 1-6.404 1.185 40.263 40.263 0 0 1-3.07.038c-2.136-.038-4.293-.22-6.255-.452a2.761 2.761 0 0 1-.324-.04 90.76 90.76 0 0 1-4.571-.685l-.777-.09-.518-.098-.37-.077-.686-.136h-.077l-.738-.162h-.175l-.486-.11-.376-.097-.388-.09h-.045l-.499-.136-.389-.11-.576-.168c-.492-.15-.984-.31-1.47-.479l-.738-.259-.77-.29a43.257 43.257 0 0 1-2.118-.9l-.188-.09a47.935 47.935 0 0 1-1.165-.563l-.058-.04a4.912 4.912 0 0 1-.37-.187 16.044 16.044 0 0 1-.938-.51 1.133 1.133 0 0 1-.227-.13l-.531-.298-.59-.355a37.954 37.954 0 0 0 5.667 1.804l.485.117 1.179.252c.647.136 1.567.31 2.642.492a86.2 86.2 0 0 0 6.009.815c3.41.388 6.853.388 10.263 0a16.403 16.403 0 0 0 3.885-.951 4.448 4.448 0 0 0 2.487-1.94 2.068 2.068 0 0 0-.434-2.465c-4.112-3.94-7.065-7.22-11.733-10.202l-.195-.122h.188l.078.038c.188.104.395.207.388.2l.123.066c.061.025.12.055.175.09 6.819 3.41 11.293 7.497 16.551 12.556l1.062 1.022z" opacity=".9" transform="translate(0 21.93)"/>
            <path fill="#FFF" fill-rule="nonzero" d="M156.055 72.385a81.02 81.02 0 0 1-14.55-1.85l-.486-.116a39.344 39.344 0 0 1-21.096-13.002 3.879 3.879 0 0 1-.926-2.53 3.979 3.979 0 0 1 2.933-3.842c5.128-1.384 12.776-.647 19.484.602a27.3 27.3 0 0 0-7.479.685 3.969 3.969 0 0 0-2.014 6.372 39.343 39.343 0 0 0 21.097 13.034l.486.11s.964.22 2.55.537z" opacity=".2"/>
            <path fill="#FFF" fill-rule="nonzero" d="M150.11 53.574h-.09a97.903 97.903 0 0 0-12.575-1.785 38.308 38.308 0 0 0-6.89.103c-.894.101-1.779.268-2.648.498h-.084a3.972 3.972 0 0 0-2.85 3.823c-.001.928.33 1.825.933 2.53a39.173 39.173 0 0 0 11.008 9.108 37.66 37.66 0 0 0 3.03 1.5 38.806 38.806 0 0 0 4.947 1.831l-.777-.13-.297-.051a.881.881 0 0 0-.188-.039h-.033l-.369-.077-.686-.136h-.084l-.738-.162h-.175l-.486-.11-.764-.188h-.039l-.499-.129-.388-.11-.59-.175c-.491-.148-.984-.31-1.47-.478l-.737-.259-.77-.291a47.218 47.218 0 0 1-2.118-.9h-.052l-.24-.09c-.431-.194-.84-.394-1.224-.601a4.912 4.912 0 0 1-.369-.188c-.323-.168-.647-.336-.939-.511a1.134 1.134 0 0 1-.226-.13c-.37-.206-.732-.42-1.088-.646-.48-.291-.952-.602-1.412-.912-.22-.143-.434-.291-.647-.44a30.371 30.371 0 0 1-1.885-1.41c-.414-.33-.822-.647-1.21-1.003-.389-.356-.79-.692-1.179-1.054a39.682 39.682 0 0 1-3.238-3.442l-.226-.29a4.32 4.32 0 0 1-.48-.926 4.15 4.15 0 0 1-.226-1.294 4.22 4.22 0 0 1 .31-1.546l.137-.284c.047-.094.099-.184.155-.272.052-.084.117-.175.175-.259l.2-.252.227-.233c.273-.264.585-.482.926-.647a.648.648 0 0 1 .15-.077l.252-.104h.162l.265-.09c.24-.065.486-.13.738-.182.376-.077.764-.148 1.166-.213h.162l.498-.065a33.057 33.057 0 0 1 4.799-.246h.705c1.678.046 3.426.182 5.18.382l.648.078c.855.103 1.71.22 2.59.349l.395.058c.124.013.247.033.37.058l.647.11 1.295.22c.246.046.492.084.732.136l1.172.22.647.123 1.218.252 1.178.253c.784.168 1.535.342 2.247.51l1.47.356h.168l.078.04.007-.11z"/>
            <path fill="url(#P)" fill-rule="nonzero" d="M181.25 96.985h-.077l-.136.04h-.376l-.44.09H179.41c-.583.09-2.02.317-2.661.478h-.382l-.071.04-.097.045h-.085l-.077.045-.059.032-.11.065-.175.11-.187.13h-.04l-.187.154a2.873 2.873 0 0 0-.57.712 1.9 1.9 0 0 0-.265 1.527c.126.258.315.48.55.647l.13.11.174.155c.648.543.855.563.933.86a1.39 1.39 0 0 1-.33 1.067 2.051 2.051 0 0 1-.454.492l-.149.11-1.903.168-.959.084-.984.078c-1.625.13-3.192.226-4.701.304l-1.774.09-1.017.046-.99.039h-.978c-.959 0-1.891.051-2.785.064h-7.55l-2.078.026h-2.455l-1.256-.058h-.175l-1.094-.065c-.848-.045-1.71-.11-2.59-.18l-.77-.066h-.195l-.984-.09-.816-.084c-.725-.078-1.476-.162-2.24-.259l-.33-.045c-.648-.084-1.38-.181-2.092-.285l-2.344-.369-.713-.123c-.835-.148-1.618-.29-2.337-.433-.298-.052-.583-.11-.855-.168l-1.593-.33-.952-.213-.615-.136-.926-.214-1.794-.42c-5.057-1.21-10.541-2.659-16.117-4.192l-1.521-.42-4.578-1.294-4.565-1.294-2.63-.75-3.982-1.132-7.511-2.122-.648-.175h-.051l-.706-.194-.952-.265-.175-.052-.46-.13-.187-.044-.123-.04-.208-.057-.492-.136-.505-.143c-1.858-.51-3.639-.99-5.329-1.423l-.31-.077-.402-.104c-.648-.18-1.386-.356-2.118-.537l-.13-.032-1.366-.336c-.79-.194-1.573-.376-2.35-.557l-.382-.09-1.295-.298a61.763 61.763 0 0 0-1.651-.369.181.181 0 0 1-.085 0l-.187-.038.693.077c2.408.285 4.955.606 7.64.964l1.354.188 1.385.187 1.626.233c.647.09 1.295.181 1.897.278l.874.13h.078l.57.084h.544l.401.064.576.091h.123l.739.123h.18l.648.103h.033l.596.097 1.08.182 2.047.349.492.09c1.45.26 2.804.511 4.047.757 2.59.505 4.78.984 6.819 1.45 1.78.407 3.432.801 5.083 1.183 4.183.97 8.36 1.889 14.608 2.807a.648.648 0 0 0 .156 0c1.087.162 2.24.324 3.47.48l.344.05.44.06c1.198.154 3.134.407 5.756.691.311 0 .648.071.952.097l1.153.123c1.528.155 3.229.31 5.102.466h.803l1.464.116 1.528.11 2.907.188h.318c1.463.097 2.998.175 4.597.246h.751a344.52 344.52 0 0 0 16.616.31h2.318l3.302-.058c1.522 0 3.07-.071 4.65-.13h.103l.959-.038 2.072-.09 1.016-.059h1.425l.35-.039.323-.039.726-.103c.647-.09 1.223-.188 1.793-.252l.285.465z" transform="translate(0 21.93)"/>
            <path fill="#FFF" fill-rule="nonzero" d="M161.093 94.819l-2.817.213-12.854-10.997 7.99-.4c.648.594-.362-.486.292.11a2.722 2.722 0 0 0-.971 3.719c.154.258.349.49.576.686l7.784 6.669zM184.035 94.282h-.985a4028.664 4028.664 0 0 0-4.332-10.253l3.4-.071c.207.485.42.964.647 1.442a1.639 1.639 0 0 0-1.605 1.67c.006.208.05.414.13.607l2.745 6.605z" opacity=".2"/>
            <path fill="url(#Q)" fill-rule="nonzero" d="M165.334 72.598l-7.058.53-2.04-1.74h.175l7.045-.484z" opacity=".5" transform="translate(0 21.93)"/>
            <path fill="url(#R)" fill-rule="nonzero" d="M180.693 97.095c.11 0 .227 0 .344-.038h-.493l-.2.038h-.713l-.226.033h-.04c-.582.09-2.02.317-2.66.478h-.382l-.072.04-.09.038-.123.065h-.059l-.11.064-.175.11h-.809l-1.483.046h-.958c-12.834.349-23.888 0-32.577-.55a304.54 304.54 0 0 1-12.847-1.074h-.22l-.952-.11c-2.999-.323-5.129-.647-6.282-.763a216.98 216.98 0 0 1-6.32-.906h-.045c-.887-.142-1.729-.278-2.538-.427a138.663 138.663 0 0 1-6.016-1.158h-.064c-1.438-.304-2.804-.647-4.164-.931l-4.455-1.042c-3.425-.789-7.22-1.63-12.303-2.542l-2.117-.375h-.059l-.602-.097-.648-.104-.951-.161-1.295-.2-.926-.15h-.091c-2.48-.388-5.18-.789-8.269-1.21l-.266-.032-3.282-.433-1.671-.388a61.763 61.763 0 0 0-1.651-.369h-.078l-.188-.039.693.078c2.409.285 4.956.606 7.64.964l1.354.187 1.386.188 1.625.233c.648.09 1.295.181 1.898.278l.874.13h.077l.648.096h.272l.583.097.576.091h.123l.738.123h.181l.648.103h.058l.596.097c2.927.48 5.446.945 7.686 1.385 2.59.504 4.779.983 6.819 1.449 1.78.407 3.432.802 5.083 1.184 4.183.97 8.36 1.888 14.608 2.807 1.237.181 2.59.369 3.97.55l.44.058c1.198.155 3.134.408 5.756.692.311 0 .648.071.952.097l1.153.123c1.528.155 3.229.31 5.102.466h.402l.369.032h-.11c1.908.155 3.98.298 6.216.427 1.567.097 3.238.188 4.921.259h.428a344.52 344.52 0 0 0 16.615.31h2.319l3.302-.058c1.522 0 3.07-.071 4.65-.13h.103l.958-.038 2.072-.09 1.295-.072h1.095a37.88 37.88 0 0 0 1.774-.22h.065l1.016-.142h.065l.032.433z" transform="translate(0 21.93)"/>
            <path fill="url(#S)" fill-rule="nonzero" d="M188.587 90.71c-1.108 1.456-2.59 2.692-4.675 4.419-1.295 1.06-1.943 1.598-2.662 1.87h-.077c-.156.051-.33.077-.564.129l-.434.09c-.939.175-2.344.058-3.781.686l-.136.058-.253.123h-2.978c-15.055.052-33.355-.233-50.042-1.94a292.954 292.954 0 0 1-41.688-7.44l41.39 3.882c16.674 1.714 34.002 1.733 49.051 1.682a44.562 44.562 0 0 0 5.336-.395c.33 0 4.377-.809 4.7-.893 3.88-.931 4.34-1.701 6.813-2.27z" opacity=".5" transform="translate(0 21.93)"/>
            <path fill="#FFF" fill-rule="nonzero" d="M123.426 77.16a25.507 25.507 0 0 0-3.005 4.094 47.606 47.606 0 0 0-12.283-6.087c-4.332-1.41-10.717-3.493-18.468-1.773a28.316 28.316 0 0 0-6.572 2.374c.058-1.449.116-2.891.18-4.34a28.638 28.638 0 0 1 7.991-3.105c7.77-1.714 14.136.362 18.468 1.779a47.287 47.287 0 0 1 13.689 7.057z" opacity=".2"/>
            <path fill="url(#T)" fill-rule="nonzero" d="M186.644 72.372l-3.594-.065c-.187-.459-.388-.918-.576-1.371l3.568.045.602 1.391z" opacity=".5" transform="translate(0 21.93)"/>
            <path fill="#FFF" fill-rule="nonzero" d="M72.31 75.807v.039a22.258 22.258 0 0 0-.648 3.57l-.81.324c-2.363.932-8.877 2.452-19.846 6.611v-2.587c10.224-3.882 16.227-6.165 18.319-6.986.608-.214 2.907-1.158 2.985-.97zM43.592 88.505c-3.665 1.113-7.35 1.94-11.008 3.235v-1.107l10.924-3.88c.038.594.077 1.157.084 1.752z" opacity=".2"/>
            <path fill="url(#U)" fill-rule="nonzero" d="M84.535 54.337a7.226 7.226 0 0 0 8.1 5.356 36.526 36.526 0 0 1 22.334 4.198l2.862 1.566a65.568 65.568 0 0 0-35.16-.886l.647-15.079 1.217 4.845z" opacity=".5" transform="translate(0 21.93)"/>
            <path fill="url(#V)" fill-rule="nonzero" d="M190.678 85.963v.07a.067.067 0 0 1 0 .046.648.648 0 0 1 0 .142.989.989 0 0 1-.07.272v.065c-.046.155-.105.323-.176.57-2.39.407-5.335.84-8.728 1.17l-.473.039h-.473l-2.318.174h-.648l-1.398.078h-.648l-.913.032-1.411.04h-4.132l-1.91-.04-1.683-.051-.907-.046c-1.114-.051-2.266-.129-3.458-.22l-1.347-.11-1.444-.135-1.353-.136-1.38-.156c-3.01-.362-4.299-.646-9.745-1.798l-.304-.064-2.558-.356c-2.745-.589-6.3-1.346-11.053-2.342l-5.465-1.132-.952-.194a1570.872 1570.872 0 0 0-12.096-2.465l-.583-.116-.86-.162a146.81 146.81 0 0 0-2.5-.44l-1.075-.18-2.098-.33a141.39 141.39 0 0 0-4.624-.59l-1.01-.103a201.91 201.91 0 0 0-3.555-.31l-1.023-.065h-.518c-.524-.039-1.049-.065-1.573-.09l-.81-.04h-1.411l-1.03-.038-1.224-.039H87.56l-2.59-.039H30.143l-4.734-.084H5.653l-5.355-.045v-.602H13.04l3.989-.045 2.033-.039h.648l3.71-.071h.913l3.523-.09 1.748-.046h3.665l1.386-.045h.732c5.018.097 8.897.174 13.261.22h.272c4.636.052 9.868.064 17.62.045h13.597c.065.007.13.007.195 0h.647c12.802.071 20.482.543 31.794 2.736 1.942.388 7.285 1.475 12.95 2.652l.952.195 4.805.077c5.27 1.1 9.065 1.94 11.966 2.53l2.254.485.291.058a86.2 86.2 0 0 0 9.325 1.701c6.475.783 12.303 1.139 17.01 1.236h3.238c1.755 0 3.51-.097 5.251-.26a65.012 65.012 0 0 0 4.475-.562l4.235-.699 1.152-.258z" opacity=".6" transform="translate(0 21.93)"/>
            <path fill="#B0BDBD" fill-rule="nonzero" d="M80.85 112.174a289.769 289.769 0 0 1-.589-18.37c.022-9.963.545-19.918 1.567-29.828.162-1.52.305-2.898.447-4.082l.648-.369a310.383 310.383 0 0 0-1.91 29.886c-.124 8.099.07 15.764.485 22.944l-.647-.18zM77.982 111.385l-.997-.285a271.792 271.792 0 0 1-.751-29.322c.194-6.74.647-13.145 1.224-19.167l.887-.498A160.04 160.04 0 0 0 76.9 76.99a243.036 243.036 0 0 0 1.081 34.394z"/>
            <path fill="url(#W)" fill-rule="nonzero" d="M76.985 89.171c-2.001-.433-3.665-.97-5.64-1.5l-.402-.104c-.647-.181-1.385-.356-2.117-.537-2.17-.524-4.565-1.054-7.194-1.682h-.084l-.473-.09-.337-.072-1.165-.252-1.205-.259h-.123a209.543 209.543 0 0 0-9.065-1.733h-.227a322.4 322.4 0 0 0-7.123-1.1l-.252-.039c-1.03-.142-2.053-.284-3.07-.414h-.045l-.725-.097a301.329 301.329 0 0 0-4.403-.537l-.712-.084h-.188l-.376-.038h-.33l-1.01-.272h-.285l-2.998-.278-.37-.033-.647-.07-1.1-.104-.402-.04-.427-.038-.454-.045-.446-.04h-.227l-.434-.038-.913-.11-.706-.065s-.408-.051-1.081-.11h-.2l-2.72-.226-2.306-.181-.589-.045-.88-.02-5.336-.42H6.54a.058.058 0 0 1-.065 0c0-.033-2.784-.181-6.002-.35v-.129a3.69 3.69 0 0 0-.04-.647c-.038-.226 0-.407-.038-.608l-.039-.595H31.84l2.441.052h42.025v.039l.563 9.89.04.712v.86l.077 1.45z" opacity=".2" transform="translate(0 21.93)"/>
            <path fill="url(#X)" fill-rule="nonzero" d="M48.96 82.864v.084h-.071l-.855-.148-.758-.13h-.058l-1.192-.187c-.828-.136-1.65-.266-2.473-.382l-2.448-.356-1.204-.162-1.198-.161h-.2l-.603-.078h-.039l-.505-.065-.518-.064-.997-.123h-.279l-1.793-.233a3.24 3.24 0 0 0-.35-.039l-.868-.097h-.058l-.408-.039H31.645l-.37-.039h-.148l-.395-.045h-.246a36.3 36.3 0 0 0-1.295-.136l-.7-.11-.699-.07h-.142l-.518-.053-.648-.07-1.1-.104-.402-.039-.428-.039-.453-.045-.447-.039h-.226l-.434-.039-.946-.09-.705-.065s-.408-.052-1.082-.11h-.188l-2.72-.226-2.304-.181-.59-.046-.86-.07-5.337-.421H6.585a.058.058 0 0 1-.064 0c0-.033-2.785-.182-6.003-.35v-.13a3.69 3.69 0 0 0-.039-.646c-.039-.226 0-.407-.039-.608l-.039-.582H31.84l2.441.052h14.518l.11 4.062v.356l.039 1.358.013.705z" opacity=".2" transform="translate(0 21.93)"/>
            <path fill="url(#Y)" fill-rule="nonzero" d="M31.95 80.555l-.331-.032-.35-.04h-.149l-.395-.045h-.252a36.3 36.3 0 0 0-1.295-.135h-.207l-.48-.052-.699-.039h-.155l-.518-.052-.648-.07-1.1-.104-.402-.04-.428-.038-.453-.045-.447-.04h-.226l-.434-.038-.965-.123-.706-.064s-.408-.052-1.081-.11h-.156l-2.72-.227-2.304-.181-.59-.045-.86-.071-5.337-.42h-1.69a.058.058 0 0 1-.064 0s-2.785-.182-6.003-.35v-.13a3.69 3.69 0 0 0-.039-.646c-.039-.227 0-.408-.039-.609l-.038-.595h31.198l.259 2.775v.253l.051.524v.233l.033.304v.11l.02.142z" opacity=".2" transform="translate(0 21.93)"/>
            <path fill="url(#Z)" fill-rule="nonzero" d="M77.01 76.712h3.238l.59 13.54c-2.13-.466-.713-.233-2.869-.79 0-.077-.492-5.427-.492-5.498 0-.071-.42-7.122-.466-7.252z" opacity=".2" transform="translate(0 21.93)"/>
            <path fill="url(#aa)" fill-opacity=".7" fill-rule="nonzero" d="M62.446 10.024c.67-.578 1.38-1.111 2.121-1.597a15.487 15.487 0 0 1 5.391-2.198c1.116-.221 2.251-.33 3.389-.323 1.53-.025 3.053.193 4.511.646a10.3 10.3 0 0 1 3.48 1.94 8.562 8.562 0 0 1 2.253 3.012 9.489 9.489 0 0 1 .794 3.95 9.9 9.9 0 0 1-.656 3.684 10.45 10.45 0 0 1-1.563 2.702c-.606.744-1.3 1.412-2.069 1.991l-2.12 1.584c-.606.447-1.181.933-1.721 1.455-.46.429-.764.994-.867 1.61l-.657 4.091h-4.806l-.486-4.564a3.66 3.66 0 0 1 .387-2.314c.387-.683.887-1.3 1.478-1.823a19.66 19.66 0 0 1 2.062-1.59 18.706 18.706 0 0 0 2.134-1.687 8.766 8.766 0 0 0 1.668-2.043c.46-.827.686-1.76.656-2.702a4.146 4.146 0 0 0-.387-1.81 4.113 4.113 0 0 0-1.064-1.37 4.946 4.946 0 0 0-1.57-.88 6.856 6.856 0 0 0-2.068-.303 9.364 9.364 0 0 0-2.745.349c-.66.197-1.297.46-1.904.782-.525.29-.965.55-1.313.789a1.843 1.843 0 0 1-.966.349 1.574 1.574 0 0 1-1.484-.84l-1.878-2.89zm5.378 33.032a4.183 4.183 0 0 1 .329-1.655c.204-.502.507-.959.893-1.344a4.32 4.32 0 0 1 1.366-.892 4.32 4.32 0 0 1 1.707-.336 4.187 4.187 0 0 1 1.694.336c.507.212.97.514 1.366.892.398.384.717.84.939 1.344.228.523.344 1.086.342 1.655a4.013 4.013 0 0 1-.342 1.642 4.2 4.2 0 0 1-.926 1.332 4.397 4.397 0 0 1-3.06 1.202 4.427 4.427 0 0 1-1.707-.323 3.983 3.983 0 0 1-2.272-2.21 4.113 4.113 0 0 1-.329-1.643z"/>
            <path fill="url(#ab)" fill-opacity=".4" fill-rule="nonzero" d="M99.576 3.786c.33-.294.678-.567 1.043-.815a7.66 7.66 0 0 1 2.699-1.117 8.286 8.286 0 0 1 1.695-.167c.766-.009 1.529.108 2.257.347.645.202 1.241.534 1.753.976.482.422.867.946 1.126 1.534.273.636.408 1.323.396 2.015a5.08 5.08 0 0 1-.313 1.88 5.191 5.191 0 0 1-.78 1.374c-.301.38-.647.72-1.03 1.015l-1.062.808a8.073 8.073 0 0 0-.864.745c-.229.22-.381.508-.434.821l-.327 2.087h-2.404l-.243-2.33a1.932 1.932 0 0 1 .191-1.181c.195-.348.446-.66.742-.925.326-.283.67-.545 1.03-.783a8.71 8.71 0 0 0 1.068-.86c.332-.31.614-.67.838-1.065.229-.423.344-.9.333-1.38a2.072 2.072 0 0 0-.73-1.624c-.241-.201-.52-.354-.818-.45a3.302 3.302 0 0 0-1.03-.154 4.5 4.5 0 0 0-1.375.18c-.33.1-.65.232-.953.398-.262.148-.48.282-.64.398a.913.913 0 0 1-.486.18.78.78 0 0 1-.742-.43l-.94-1.477zm2.686 16.843c0-.289.056-.575.167-.841a2.033 2.033 0 0 1 1.132-1.143c.268-.116.558-.175.85-.173.293-.003.583.056.851.173.253.107.483.262.678.456.202.194.36.428.467.687.221.54.221 1.147 0 1.688a2.146 2.146 0 0 1-1.996 1.297 2.213 2.213 0 0 1-.85-.167 2.02 2.02 0 0 1-1.132-1.13 2.196 2.196 0 0 1-.167-.847z" transform="rotate(15 105.061 12.23)"/>
            <path fill="url(#ac)" fill-opacity=".5" fill-rule="nonzero" d="M43.881 41.155c.235-.21.48-.407.734-.59a5.264 5.264 0 0 1 3.038-.923 4.73 4.73 0 0 1 1.563.249c.442.145.853.379 1.21.688.332.307.598.685.78 1.107.185.458.277.95.269 1.448.01.47-.067.937-.226 1.376a3.98 3.98 0 0 1-.54.99c-.211.269-.451.513-.715.727l-.734.583c-.212.16-.411.338-.597.53-.159.157-.265.365-.3.59l-.227 1.507h-1.65l-.17-1.651c-.043-.291.003-.59.132-.852.136-.246.31-.468.515-.655.224-.213.463-.408.715-.583a6.77 6.77 0 0 0 .734-.616c.227-.22.421-.474.578-.754.162-.303.242-.648.232-.995a1.611 1.611 0 0 0-.132-.656 1.521 1.521 0 0 0-.935-.825 2.105 2.105 0 0 0-.715-.112 3.11 3.11 0 0 0-.954.125 3.576 3.576 0 0 0-.628.288 7.22 7.22 0 0 0-.458.288.542.542 0 0 1-.847-.177l-.672-1.107zm1.883 12.128a1.64 1.64 0 0 1 .113-.61c.07-.183.175-.35.307-.49a1.472 1.472 0 0 1 1.65-.328c.178.077.34.188.478.327.135.142.243.309.32.492.15.39.15.828 0 1.219-.077.182-.185.349-.32.491a1.513 1.513 0 0 1-1.65.321 1.382 1.382 0 0 1-.785-.812 1.637 1.637 0 0 1-.132-.61h.019z" transform="rotate(-15 47.678 47.232)"/>
        </g>
    </g>
</svg>
