<?xml version="1.0" encoding="UTF-8"?>
<svg version="1.1" viewBox="0 0 2048 878" width="1459" height="626" xmlns="http://www.w3.org/2000/svg">
<path transform="translate(919,275)" d="m0 0h24l19 3 17 5 18 8 14 9 10 8 12 11 11 14 7 11 8 16 6 18 3 14 1 8v27l-3 18-5 17-10 21-8 12-11 13-11 11-15 11-21 11-18 6-14 3-24 2-21-2-17-4-19-7-16-9-11-8-10-9-11-11-10-14-9-16-6-15-5-21-1-7v-32l4-21 7-19 10-19 10-13 9-10 7-7 15-11 16-9 15-6 19-5zm5 52-16 3-13 5-11 6-10 8-10 10-10 15-6 15-3 15v20l3 15 6 15 7 11 9 10 8 8 13 8 11 5 15 4 7 1h15l16-3 16-6 14-9 12-11 9-12 8-17 4-15 1-16-2-16-4-14-9-17-9-11-11-10-15-9-18-6-12-2z" fill="#044C96"/>
<path transform="translate(568,153)" d="m0 0h1v268l-2 17-5 20-8 19-10 16-8 10-9 10-10 9-15 10-15 8-17 6-17 4-24 2-21-2-21-5-19-8-14-8-13-10-13-12-11-14-8-13-9-19-5-18-2-11v-6h51l4 15 5 12 7 12 12 13 12 9 14 7 12 4 13 2h15l16-3 16-6 14-9 10-9 9-11 8-15 4-12 2-11 1-98h-75v-51h75v-100l5-3 40-17z" fill="#034C96"/>
<path transform="translate(1237,275)" d="m0 0h11v50l-1 1-17 2-14 4-14 7-12 9-8 8-9 13-6 12-4 13-2 14v11l3 17 5 14 6 11 8 10 5 5 9 8 14 8 13 5 17 3h14l17-3 13-5 11-6 9-7 7-6 9-12 8-15 4-13 2-14 1-144h50v153l-3 18-7 21-8 16-8 12-8 10-14 14-15 11-12 7-20 8-21 5-23 2-21-2-18-4-16-6-14-7-12-8-11-9-13-13-11-15-11-21-6-18-3-14-1-8v-28l3-18 5-16 7-16 9-15 9-11 9-10 13-11 14-9 16-8 18-6 15-3z" fill="#034C96"/>
<path transform="translate(632,154)" d="m0 0 10 3 40 17v101h88v51h-88l1 95 3 16 6 16 7 11 9 11 12 10 17 9 13 4 20 3v51l-23-2-17-4-19-7-18-10-14-11-16-16-10-14-9-16-7-18-4-18-1-6z" fill="#044C96"/>
<path transform="translate(1560,275)" d="m0 0h11l-4 3-16 10-11 9-10 9-7 7-13 17-10 17-8 20-5 19-2 13-1 12-1 140h-50v-151l3-18 6-20 8-16 7-12 9-11 11-12 14-11 13-8 14-7 18-6 15-3z" fill="#044C96"/>
<path transform="translate(1563,180)" d="m0 0 130 4 61 2v3l-13 18-16 21-14 19-12 16-14 19-16 21-7 9-5-5-14-19-13-17-15-20 1-3 37-17 33-15 36-16-17 2-111 18-4-2-14-19-13-17z" fill="#FEAF0B"/>
<path transform="translate(422,363)" d="m0 0h17l13 4 11 7 8 8 6 11 3 8 1 6v13l-3 12-6 11-6 7-13 9-12 4-14 1-14-3-10-5-10-9-6-7-5-11-2-9v-13l3-12 5-10 9-10 10-7 10-4z" fill="#FEAF0B"/>
<path transform="translate(411,276)" d="m0 0h7v50l-6 2-16 5-13 7-14 11-10 12-7 12-5 13-3 12-1 1h-50l1-13 5-19 6-15 8-15 9-12 9-10 10-10 15-11 21-11 18-6z" fill="#FEAF0B"/>
<path transform="translate(926,375)" d="m0 0h10l13 4 9 7 7 9 4 13v11l-3 10-6 9-7 7-11 5-4 1h-15l-11-4-10-8-6-9-3-9v-15l4-11 6-8 8-7 10-4z" fill="#044C96"/>
<path transform="translate(549,658)" d="m0 0h10l3 9 7 32 1 1 11-41 3-1h6l3 9 9 33 1 1 9-42 5-1h6l-1 8-14 57-1 1h-9l-12-44-12 44h-9l-3-8-13-54z" fill="#095098"/>
<path transform="translate(866,631)" d="m0 0h11l1 1v92h-11v-5l-6 5-3 1h-13l-8-5-4-6-3-10v-25l3-10 4-6 5-4 7-2 10 1 6 4zm-15 36-5 3-4 6-1 5v21l3 9 5 4 8 1 6-3 3-4v-36l-6-5-2-1z" fill="#10559B"/>
<path transform="translate(1391,631)" d="m0 0h11l1 1v92h-11l-1-4-5 4-3 1h-13l-8-5-6-12-1-5v-23l4-13 6-7 9-3 10 1 6 4zm-15 36-6 4-3 6-1 4v21l3 9 5 4 8 1 6-3 3-3v-37l-6-5-2-1z" fill="#10559B"/>
<path transform="translate(1433,275)" d="m0 0h75l-3 2-16 8-14 9-13 11-10 11-9 14-6 13-3 9h-1l-1-20v-50z" fill="#FEAF0B"/>
<path transform="translate(355,631)" d="m0 0h11l1 32 8-5 9-1 7 2 6 7 2 5v53h-11l-1-50-3-5-8-1-5 3-3 3-1 3-1 47h-11z" fill="#0A5199"/>
<path transform="translate(1126,631)" d="m0 0h11l1 32 5-4 7-2 9 1 6 4 4 7 1 4v51h-11l-1-49-2-6-10-1-6 4-2 4-1 48h-11z" fill="#044D96"/>
<path transform="translate(1222,657)" d="m0 0h7l9 3 5 4 3 7 1 44 1 9h-11l-2-5-8 6h-13l-6-3-4-5-2-5v-11l4-8 7-6 5-2 6-1h11l-1-11-1-4-4-1h-8l-5 4-2 5h-11l1-7 4-6 5-4zm8 35-10 2-6 5-1 3v7l3 5 2 1h9l6-4 2-2v-17z" fill="#095098"/>
<path transform="translate(452,657)" d="m0 0h7l9 3 6 7 3 7 1 7v14h-37l3 13 4 5 4 2h9l8-4 1-2h3l4 5-1 4-5 4-7 3h-16l-10-5-5-7-2-6-1-9 1-20 4-10 7-8zm-2 10-6 5-3 12v1h26l-1-10-4-6-3-2z" fill="#084F98"/>
<path transform="translate(672,657)" d="m0 0 11 1 8 5 6 7 3 9v25l-4 10-7 8-7 3h-15l-8-5-6-7-3-8-1-13v-8l3-12 6-9 6-4zm-1 10-6 4-4 8-1 6v13l2 9 5 7 5 2h7l6-4 3-5 1-4v-22l-3-8-7-6z" fill="#095098"/>
<path transform="translate(1026,657)" d="m0 0 10 1 6 4 4 8 1 4v50h-11l-1-48-3-6-3-2h-6l-6 4-2 3-1 49h-11l-1-65 1-1h9l1 1v5l9-6z" fill="#064E97"/>
<path transform="translate(1304,657)" d="m0 0 9 1 6 4 3 4 2 7v51h-11l-1-49-2-6-10-1-5 3-3 5-1 48h-11v-66l10 1v5l7-5z" fill="#054E97"/>
<path transform="translate(1454,657)" d="m0 0h7l8 3 6 5 3 6v6h-11l-3-7-4-2h-7l-5 5 1 7 8 5 16 8 5 6 1 3v9l-4 8-5 4-5 2h-16l-6-3-5-5-4-8 1-5h10l4 9 4 2h8l5-3 1-7-5-5-16-8-8-7-2-5v-8l4-8 5-4z" fill="#095098"/>
<path transform="translate(305,643)" d="m0 0h10l1 15 9 1v8l-9 1v41l2 5 7 1v9l-1 1h-12l-5-5-2-4-1-13v-35h-9l-1-1v-8l5-1h5z" fill="#10559B"/>
<path transform="translate(787,631)" d="m0 0h11v93h-11z" fill="#034C96"/>
<path transform="translate(1699,205)" d="m0 0 4 1-95 33-12 29h-1l1-20 2-21z" fill="#FEAF0B"/>
<path transform="translate(752,657)" d="m0 0 6 1 1 1v9l-1 1-9 1-5 5-1 2-1 47h-11v-65l5-1 6 1 1 4 5-5z" fill="#195B9F"/>
<path transform="translate(958,658)" d="m0 0h10l1 1v65h-11z" fill="#064E97"/>
<path transform="translate(1609,257)" d="m0 0 5 5 8 11v2l-7 1h-12l3-12z" fill="#FEAF0B"/>
<path transform="translate(960,635)" d="m0 0h6l3 2 1 6-2 4-7 1-4-4 1-7z" fill="#064E97"/>
<path transform="translate(1703,204)" d="m0 0 3 1z" fill="#FEAF0B"/>
</svg>
