<svg width="110" height="29" viewBox="0 0 110 29" xmlns="http://www.w3.org/2000/svg">
    <g fill="#12BC7D" fill-rule="nonzero">
        <path d="M94.01 0c-5.688 0-10.315 4.63-10.315 10.32 0 5.691 4.627 10.32 10.314 10.32 5.69 0 10.318-4.629 10.318-10.32C104.327 4.63 99.699 0 94.009 0m8.05 4.561a14.46 14.46 0 0 1-1.661.962 10.715 10.715 0 0 0-1.232-1.93 9.521 9.521 0 0 0 1.202-.86 9.913 9.913 0 0 1 1.69 1.828m-4.34-3.423a9.854 9.854 0 0 1 2.312 1.326 9.427 9.427 0 0 1-1.137.804 10.676 10.676 0 0 0-1.699-1.57c.189-.174.364-.361.525-.56m.799 2.342a9.667 9.667 0 0 1-1.738.726c-.252-.578-.54-1.14-.86-1.682.334-.147.649-.332.94-.551.605.441 1.16.947 1.658 1.507M97.298.981c-.14.166-.294.321-.457.464a10.798 10.798 0 0 0-1.729-.957 9.708 9.708 0 0 1 2.186.493m-.808.738a4.182 4.182 0 0 1-.793.441c-.306-.479-.638-.941-.994-1.385a10.35 10.35 0 0 1 1.787.944M94.223.85c.384.463.74.95 1.065 1.457-.345.108-.703.17-1.065.187V.848zm0 2.072a4.87 4.87 0 0 0 1.297-.24c.318.528.6 1.076.847 1.641a9.395 9.395 0 0 1-2.144.296V2.921zm-.43-2.056v1.628a4.212 4.212 0 0 1-1.05-.187c.321-.5.672-.981 1.05-1.441m-1.457 1.297a4.187 4.187 0 0 1-.79-.443 10.11 10.11 0 0 1 1.778-.94c-.355.442-.684.903-.988 1.383m.596-1.678c-.609.266-1.192.587-1.742.96a4.785 4.785 0 0 1-.457-.467 9.71 9.71 0 0 1 2.2-.493m7.066 17.712c-1.37-.752-1.398-1.797-1.327-2.18.075-.391.343-.221.513-.221.902 0 1.852-.267 3.02-1.461 1.318-1.345 1.733-4.337-.294-6.285-2.183-2.102-4.505-1.734-6.002.156-.308.386-1.056.67-1.704.647-.96-.036-.356.72-.356.877 0 .16-.144.268-.23.245-.325-.093-.195.39-.195.535 0 .147-.133.22-.206.22-.404 0-.292.365-.28.462.011.098-.024.267-.159.342-.128.072-.28.39-.28.634 0 .437.402.743 1.073 1.242.668.5.754.974.766 1.315.013.341.044.891.197 1.256.18.438.156 1.242-.77 1.278-1.13.045-3.14.95-3.31 1.011-.638.228-1.482.309-2.142.144a9.682 9.682 0 0 1-1.012-.82c-.132-.454.097-.944.328-1.274.377.378.94.354 1.253.365.317.013 1.863-.23 2.083-.303.22-.074.317-.048.45 0 .591.215 1.4.279 1.729-.853.329-1.132-.45-.815-.547-.768-.099.05-.232.038-.183-.06.144-.288-.073-.258-.195-.269-.317-.032-.731.305-.864.428-.135.122-.27.108-.318.084-.419-.21-1.67.094-2.057-.585.036-.182-.318-2.934-.5-3.41a.474.474 0 0 1 .049-.449c.317-.479 1.194.034 1.669.023.568-.014.66-.252.815-.445.15-.186.26-.082.341-.134.104-.066.006-.2.042-.273.038-.074.08-.038.177-.122.098-.087-.013-.268.036-.342.14-.212.524-.041.293-.596-.125-.303.05-.632.22-.852.276-.357 1.34-1.854-.536-3.412-1.792-1.484-3.606-1.362-4.775-.098-1.168 1.267-.584 3.119-.462 3.606.122.488-.229.93-.632 1.121-.321.152-1.05.638-1.603 1.12a9.848 9.848 0 0 1 6.2-8.961c.156.198.332.384.521.56-.412.3-1.31 1.105-1.31 1.105s.122.018.237.045c.079.02.246.07.246.07s.792-.675 1.164-.942c.29.22.606.403.942.551-.181.307-.632 1.153-.632 1.153s.104.064.2.126c.09.062.15.116.15.116s.492-.927.679-1.237c.414.138.844.218 1.28.238v1.7a26.383 26.383 0 0 1-1.117-.058l-.158-.017.088.131c.068.098.118.196.165.286l.018.034.041.006c.184.014.752.034.964.04v3.092h.43v-.708c.628-.03 1.152-.073 1.784-.128l.029-.003.555-.492-.304.026c-.593.077-1.19.13-1.788.16l-.276.014V5.04a10.027 10.027 0 0 0 2.314-.325c.206.511.598 1.75.598 1.75l.405-.126s-.391-1.23-.597-1.742a9.878 9.878 0 0 0 1.853-.787c.476.585.885 1.22 1.22 1.894-.304.144-.859.34-.857.34.444.048.782.154.782.154s.157-.067.258-.112c.04.088.116.269.116.269l.554.245-.063-.153-.228-.541a15.12 15.12 0 0 0 1.721-.996 9.858 9.858 0 0 1 1.61 5.41A9.882 9.882 0 0 1 100 18.195M82.76 2.742l-.16.144c-.606.535-1.986 1.948-1.777 3.5l.023.11.069.308.193-.177c.847-.773 1.482-2.087 1.741-3.602l.073-.427-.162.144zm-2.807 2.682-.07.187c-.096.259-.27.803-.364 1.527-.13 1.024-.1 2.473.79 3.557l.098.128.103.13.131-.658c.147-1.162-.046-3.599-.474-4.686l-.146-.372-.068.187zm-1.025 4.191-.012.192c-.076 1.043-.022 3.616 2.061 4.982l.248.16-.01-.294c-.037-.977-1.176-3.891-2.03-4.935l-.242-.296-.015.191zm.358 4.606.036.176c.304 1.478 1.705 3.874 3.872 4.568l.296.097-.108-.292c-.402-1.106-2.49-3.683-3.83-4.532l-.303-.193.037.176zm4.35-9.25-.171.103c-1.612.985-2.367 2.177-2.31 3.648l.015.336.234-.194c.873-.723 1.963-2.567 2.285-3.614l.118-.382-.171.103zm-.95 3.221-.12.116c-.413.392-1.747 1.814-1.633 3.571.017.27.08.562.183.864l.095.28.171-.24c.638-.898 1.484-3.269 1.44-4.371l-.014-.335-.121.115zm.07 3.05-.09.137c-.674 1-1.017 2.026-.996 2.971.019.7.242 1.37.664 1.992l.14.209.12-.222c.29-.546.521-2.32.486-3.725-.012-.495-.061-.905-.144-1.185l-.09-.309-.09.133zm.783 3.264-.043.142a5.789 5.789 0 0 0-.281 1.885c.039 1.365.642 2.43 1.797 3.171l.195.124.043-.263.015-.21c-.031-1.11-.858-3.9-1.504-4.754l-.178-.236-.044.14zm-2.273 4.327.082.14c.869 1.454 2.342 3.333 5.098 2.85l.23-.038-.13-.194c-.516-.766-3.86-2.653-5.042-2.847l-.321-.052.083.141zm4.075 3.696-.432.118.415.168c1.751.717 3.948.929 5.22.501.48-.162.77-.425 1.125-.771 2.242.231 4.341 2.096 5.564 3.618l.066.077.095-.03c.137-.048.35-.21.438-.308l.086-.092-.078-.102c-1.275-1.67-3.273-2.706-3.363-2.746-1.797-.88-4.973-1.562-9.136-.433"/>
        <path d="m85.434 19.96.024.147c.263 1.65.933 3.817 3.72 3.578l.18-.016-.045-.174c-.19-.75-2.743-2.932-3.634-3.545l-.268-.14.023.15zm19.705-15.27.074.426c.26 1.515.895 2.829 1.742 3.602l.194.177.067-.308.021-.11c.213-1.552-1.169-2.965-1.772-3.5l-.163-.144-.163-.144zm2.903 2.638-.147.372c-.428 1.088-.622 3.524-.475 4.686l.133.659.103-.13.098-.13c.89-1.083.92-2.532.787-3.556a7.028 7.028 0 0 0-.362-1.527l-.07-.186-.067-.188zm1.079 4.187-.242.296c-.854 1.044-1.995 3.957-2.03 4.935l-.01.293.245-.159c2.083-1.365 2.138-3.94 2.063-4.982l-.014-.192-.012-.191zm-.308 4.62-.302.193c-1.34.85-3.43 3.426-3.832 4.532l-.107.293.296-.098c2.164-.693 3.568-3.09 3.871-4.567l.037-.176.037-.177zm-4.475-9.227.112.383c.299 1.055 1.353 2.92 2.21 3.659l.233.199.02-.336c.086-1.469-.645-2.677-2.237-3.691l-.17-.108-.168-.106zm.916 3.26-.013.334c-.045 1.103.8 3.474 1.438 4.371l.173.24.095-.28c.103-.301.164-.593.182-.863.116-1.757-1.22-3.179-1.632-3.571l-.122-.116-.12-.115zm-.038 3.033-.09.308c-.082.28-.131.69-.143 1.186-.036 1.404.196 3.179.485 3.724l.118.222.143-.209a3.68 3.68 0 0 0 .662-1.991c.023-.946-.32-1.972-.994-2.972l-.09-.136-.091-.132zm-.737 3.255-.177.236c-.648.854-1.473 3.644-1.505 4.754 0 0 .016.203.018.21l.041.263.197-.124c1.153-.74 1.756-1.806 1.795-3.17a5.754 5.754 0 0 0-.28-1.886l-.046-.142-.043-.141zm2.401 4.326-.322.053c-1.183.194-4.526 2.081-5.042 2.847l-.13.194.23.038c2.758.483 4.23-1.397 5.098-2.85l.083-.14.083-.142zm-13.295 4.27c-.088.04-2.088 1.076-3.362 2.747l-.079.102.088.092c.089.097.3.26.44.307l.092.03.066-.076c1.221-1.521 3.32-3.386 5.562-3.618.356.347.646.609 1.126.772 1.274.427 3.468.216 5.221-.502l.415-.168-.432-.118c-4.164-1.13-7.34-.447-9.137.433m9.067-5.242-.266.14c-.895.612-3.448 2.794-3.637 3.545l-.043.173.178.016c2.787.24 3.458-1.927 3.72-3.578l.025-.147.023-.149zM32.222 3.106h3.484v3.177h-3.483V3.106zm.277 6.786h2.93v15.48H32.5V9.892zm-22.109.014h2.929v15.48H10.45v-2.281h-.06c-1.173 1.944-3.145 2.743-5.304 2.743C1.85 25.848 0 23.382 0 20.268V9.906h2.93v9.159c0 2.68.616 4.655 3.42 4.655 1.204 0 2.838-.615 3.453-2.22.555-1.449.587-3.267.587-3.64V9.906zm8.776 2.282h.062c.986-1.944 3.146-2.744 4.686-2.744 1.08 0 5.857.276 5.857 5.242v10.7h-2.927V15.64c0-2.56-1.08-3.945-3.546-3.945 0 0-1.605-.093-2.836 1.14-.432.43-1.234 1.11-1.234 4.132v8.418h-2.93V9.906h2.868v2.282zm28.526 2.683c-.153-1.93-1.07-3.276-3.155-3.276-2.783 0-3.857 2.416-3.857 6.035 0 3.614 1.074 6.035 3.857 6.035 1.928 0 3.123-1.253 3.275-3.462h2.913c-.248 3.462-2.817 5.575-6.22 5.575-4.93 0-6.888-3.49-6.888-8.028 0-4.508 2.264-8.273 7.138-8.273 3.247 0 5.695 2.054 5.843 5.393h-2.906zm7.407 3.308c-.215 2.697.888 5.486 3.858 5.486 2.267 0 3.399-.886 3.734-3.128h3.067c-.463 3.499-3.158 5.241-6.83 5.241-4.932 0-6.896-3.49-6.896-8.027 0-4.509 2.271-8.274 7.14-8.274 4.593.096 6.767 3.002 6.767 7.265v1.437h-10.84zm7.78-2.02c.06-2.573-1.106-4.565-3.922-4.565-2.423 0-3.858 2.046-3.858 4.565h7.78zm6.355 9.159V11.96H66.59V9.933h2.644V6.629c.096-3.372 2.636-4.26 4.81-4.26.704 0 1.38.182 2.088.306v2.418C75.636 5.067 75.149 5 74.656 5c-1.65 0-2.603.432-2.512 2.116v2.816H75.7v2.028h-3.556v13.357h-2.91z"/>
    </g>
</svg>
