<?xml version="1.0" encoding="UTF-8"?>
<svg width="54px" height="54px" viewBox="0 0 54 54" version="1.1" xmlns="http://www.w3.org/2000/svg" xmlns:xlink="http://www.w3.org/1999/xlink">
    <title>?</title>
    <g id="home-pages" stroke="none" stroke-width="1" fill="none" fill-rule="evenodd">
        <g id="2022-Home-1920-Alternative-Copy-11" transform="translate(-934.000000, -1325.000000)">
            <g id="Value-Proposition" transform="translate(0.000000, 1218.000000)">
                <g id="Group-22" transform="translate(473.000000, 101.500000)">
                    <g id="Easy-fast-reliable" transform="translate(391.000000, 5.500000)">
                        <g id="?" transform="translate(70.000000, 0.000000)">
                            <path d="M17.8739652,21.024826 C17.8739652,21.6643651 17.5867445,22.0100369 17.0123032,22.0618413 L6.24361433,22.0618413 C4.87916703,22.1255258 3.82947668,22.693718 3.09454328,23.7664178 C2.35960988,24.8391176 2.00424412,25.782196 2.028446,26.595653 L2.028446,42.8484529 C2.05931665,43.8477079 2.49369183,44.7416539 3.33157156,45.5302907 C4.16945128,46.3189276 5.19394606,46.7896939 6.40505589,46.9425897 L13.3156425,46.8492491 L16.5756756,49.9489669 L16.5756756,47.8120688 C16.6403759,47.5669144 16.7293222,47.3607126 16.8425146,47.1934634 C16.955707,47.0262143 17.1890034,46.9114762 17.5424039,46.8492491 L29.2029629,46.8492491 C30.2045145,46.7570346 31.0393248,46.3173818 31.7073939,45.5302907 C32.375463,44.7431996 32.8295353,43.8099256 33.0696109,42.7304687 L33.0696109,35.079914 C33.4199641,34.5503874 33.7594749,34.2856241 34.0881436,34.2856241 C34.4168122,34.2856241 34.7406669,34.5503874 35.0597078,35.079914 L35.0597078,42.7304687 C34.9557015,44.424777 34.2617302,45.8288174 32.9777939,46.9425897 C31.6938576,48.0563621 30.4355806,48.7001409 29.2029629,48.8739264 L18.5434982,48.8739264 L18.5434982,52.4267007 C18.5955338,52.733464 18.3723561,52.9972998 17.8739652,53.2182082 C17.3755743,53.4391166 16.9428111,53.2656404 16.5756756,52.6977794 L12.8602673,48.9834973 L6.24361433,48.9834973 C4.84988629,48.8989232 3.56305725,48.3022452 2.38312722,47.1934634 C1.20319719,46.0846816 0.408821446,44.5970167 0,42.7304687 L0,25.9992401 C0.355294657,24.4343323 0.999380248,23.1615032 1.93225677,22.1807529 C3.33157156,20.7096274 5.2874192,20 6.24361433,20 C6.88107774,20 10.4706407,20 17.0123032,20 C17.5867445,20.0436782 17.8739652,20.3852869 17.8739652,21.024826 Z" id="Path-13" fill="#12BC7D"></path>
                            <rect id="Rectangle" fill="#12BC7D" x="4.84070796" y="27.9867257" width="17.7654867" height="2.19026549" rx="1.09513274"></rect>
                            <rect id="Rectangle-Copy-2" fill="#12BC7D" x="4.84070796" y="34.0707965" width="24.579646" height="2.19026549" rx="1.09513274"></rect>
                            <rect id="Rectangle-Copy-3" fill="#12BC7D" x="4.84070796" y="39.9115044" width="20.4424779" height="2.19026549" rx="1.09513274"></rect>
                            <rect id="Rectangle-Copy-4" fill="#12BC7D" x="27.4734513" y="39.9115044" width="2.19026549" height="2.19026549" rx="1.09513274"></rect>
                            <path d="M37.0862832,0 C46.427471,0 54,7.0277427 54,15.6969027 C54,20.4436375 51.7297334,24.6982706 48.141934,27.5766102 L48.1410441,34.2491769 C48.1268543,34.7002217 47.9643446,34.9932999 47.6535152,35.1284115 C47.187271,35.3310788 46.6485916,35.0739799 46.2260946,34.6615784 C45.9726034,34.4141443 44.6213843,33.0843367 42.1724373,30.6721558 C40.5666995,31.1409018 38.8583152,31.3938053 37.0862832,31.3938053 C27.7450953,31.3938053 20.1725664,24.3660626 20.1725664,15.6969027 C20.1725664,7.0277427 27.7450953,0 37.0862832,0 Z" id="Combined-Shape" fill="#12BC7D" opacity="0.868209484"></path>
                            <path d="M37.0862832,1.69690265 C45.4176485,1.69690265 52.1715545,7.96491616 52.1715545,15.6969027 C52.1715545,20.2957307 49.7822737,24.3766596 46.0928931,26.9288667 L46.0926374,31.7260578 L42.8377454,28.6434046 C41.0652666,29.3223445 39.1229071,29.6969027 37.0862832,29.6969027 C28.7549179,29.6969027 22.0010119,23.4288892 22.0010119,15.6969027 C22.0010119,7.96491616 28.7549179,1.69690265 37.0862832,1.69690265 Z" id="Combined-Shape" fill="#C5FFEA" opacity="0.868209484"></path>
                            <path d="M33.6840708,10.9610619 C33.9241888,10.759882 34.1853982,10.5716814 34.4676991,10.3964602 C34.75,10.2212389 35.0533923,10.0671091 35.3778761,9.9340708 C35.7023599,9.80103245 36.0511799,9.69719764 36.4243363,9.62256637 C36.7974926,9.5479351 37.2014749,9.51061947 37.6362832,9.51061947 C38.2463127,9.51061947 38.7963127,9.59174041 39.2862832,9.7539823 C39.7762537,9.91622419 40.1932153,10.1482301 40.5371681,10.45 C40.8811209,10.7517699 41.1455752,11.1151917 41.330531,11.5402655 C41.5154867,11.9653392 41.6079646,12.4374631 41.6079646,12.9566372 C41.6079646,13.4563422 41.539823,13.8846608 41.4035398,14.2415929 C41.2672566,14.5985251 41.0936578,14.9100295 40.8827434,15.1761062 C40.6718289,15.4421829 40.4414454,15.670944 40.1915929,15.8623894 C39.9417404,16.0538348 39.7048673,16.2339233 39.4809735,16.4026549 C39.2570796,16.5713864 39.0623894,16.7368732 38.8969027,16.899115 C38.7314159,17.0613569 38.6292035,17.2430678 38.5902655,17.4442478 L38.3176991,18.8070796 L36.2539823,18.8070796 L36.039823,17.239823 C36.0333333,17.200885 36.0284661,17.1619469 36.0252212,17.1230088 C36.0219764,17.0840708 36.020354,17.0451327 36.020354,17.0061947 C36.020354,16.720649 36.0884956,16.4707965 36.2247788,16.2566372 C36.3610619,16.0424779 36.5330383,15.8461652 36.740708,15.6676991 C36.9483776,15.489233 37.1722714,15.3172566 37.4123894,15.1517699 C37.6525074,14.9862832 37.8764012,14.8078171 38.0840708,14.6163717 C38.2917404,14.4249263 38.4637168,14.210767 38.6,13.9738938 C38.7362832,13.7370206 38.8044248,13.4563422 38.8044248,13.1318584 C38.8044248,12.7424779 38.6762537,12.4325959 38.4199115,12.2022124 C38.1635693,11.9718289 37.8115044,11.8566372 37.3637168,11.8566372 C37.019764,11.8566372 36.7325959,11.8923304 36.5022124,11.9637168 C36.2718289,12.0351032 36.0738938,12.1146018 35.9084071,12.2022124 C35.7429204,12.289823 35.5985251,12.3693215 35.4752212,12.440708 C35.3519174,12.5120944 35.2286136,12.5477876 35.1053097,12.5477876 C34.8262537,12.5477876 34.6185841,12.4277286 34.4823009,12.1876106 L33.6840708,10.9610619 Z M35.4752212,22.3212389 C35.4752212,22.0876106 35.5190265,21.8702065 35.6066372,21.6690265 C35.6942478,21.4678466 35.8143068,21.2926254 35.9668142,21.1433628 C36.1193215,20.9941003 36.29941,20.8756637 36.5070796,20.7880531 C36.7147493,20.7004425 36.9418879,20.6566372 37.1884956,20.6566372 C37.4286136,20.6566372 37.6525074,20.7004425 37.860177,20.7880531 C38.0678466,20.8756637 38.2495575,20.9941003 38.4053097,21.1433628 C38.5610619,21.2926254 38.6827434,21.4678466 38.770354,21.6690265 C38.8579646,21.8702065 38.9017699,22.0876106 38.9017699,22.3212389 C38.9017699,22.5548673 38.8579646,22.7738938 38.770354,22.9783186 C38.6827434,23.1827434 38.5610619,23.359587 38.4053097,23.5088496 C38.2495575,23.6581121 38.0678466,23.7749263 37.860177,23.859292 C37.6525074,23.9436578 37.4286136,23.9858407 37.1884956,23.9858407 C36.9418879,23.9858407 36.7147493,23.9436578 36.5070796,23.859292 C36.29941,23.7749263 36.1193215,23.6581121 35.9668142,23.5088496 C35.8143068,23.359587 35.6942478,23.1827434 35.6066372,22.9783186 C35.5190265,22.7738938 35.4752212,22.5548673 35.4752212,22.3212389 Z" id="Shape" fill="#12BC7D" fill-rule="nonzero"></path>
                        </g>
                    </g>
                </g>
            </g>
        </g>
    </g>
</svg>