<svg width="58" height="49" viewBox="0 0 58 49" xmlns="http://www.w3.org/2000/svg">
    <g fill="none" fill-rule="evenodd">
        <path fill="#B1F7DE" d="M34 17.054h7v19h-7z"/>
        <path fill="#B1F7DE" d="M34 9.054h9v8h-9z"/>
        <path d="M45.413 0c2.731 0 5.005 2.342 5.005 4.593 0 1.501-.653 3.038-1.96 4.61h6.054c.602.124 1.081.37 1.437.735.357.365.536.764.54 1.198v4.58c.12.267-.06.655-.54 1.166-.48.512-1.153.828-2.018.949v9.328l.749.225c.846.492 1.578 1.262 2.194 2.31.617 1.047.761 1.922.434 2.625l-1.359 1.869c-.638.632-1.18.714-1.624.247-.444-.467-.382-1.05.187-1.752.741-1.035.741-1.936 0-2.702-.74-.766-1.788-.978-3.143-.634-4.903 4.425-7.68 6.916-8.33 7.472-.65.556-1.437.932-2.361 1.13h-15.19c-1.843-.904-2.765-2.157-2.765-3.761s.922-2.797 2.765-3.577h8.528c1.08-.274 1.62-.838 1.62-1.692 0-.855-.54-1.48-1.62-1.879h-18.72c-1.201.382-2.06.742-2.577 1.082-.517.34-1.094.788-1.731 1.343v10.153l9.737 4.509h19.953c.634-.098 1.116-.21 1.447-.34.33-.128.848-.532 1.554-1.212 1.987-1.829 3.101-2.815 3.344-2.957.364-.214 1.059-.366 1.434 0 .375.365.291.954.16 1.302-.133.348-1.086 1.203-2.158 2.13-1.072.928-2.265 2.175-3.42 2.675a8.358 8.358 0 0 1-2.361.641H20.725c-2.487-.966-4.296-1.713-5.429-2.24-1.132-.526-2.569-1.193-4.308-2.003v2.793c-.172.892-.553 1.617-1.144 2.175-.59.558-1.202.882-1.833.973H3.517a6.149 6.149 0 0 1-2.234-1.21C.65 46.309.222 45.664 0 44.916v-4.344c0-.278.51-.954 1.283-.954.516 0 .832.318.95.954v3.555c.175.619.404 1.038.686 1.257.281.219.556.333.825.341h3.813c.32-.045.626-.211.918-.5.292-.289.432-.599.419-.93V27.04c-.042-.442-.182-.799-.42-1.072a1.12 1.12 0 0 0-.917-.395H3.744c-.272.01-.613.142-1.022.395-.41.254-.616.544-.62.871v3.772c.008.692-.265 1.038-.82 1.038-.553 0-.98-.346-1.282-1.038v-4.36c.33-.903.757-1.539 1.283-1.908.526-.369 1.27-.741 2.234-1.117h4.04c.75.001 1.513.374 2.287 1.117s1.155 1.48 1.144 2.212a8.646 8.646 0 0 1 1.731-.982c.62-.263 1.479-.489 2.577-.676h6.996v-6.815c-.56-.063-1.082-.288-1.567-.675-.485-.386-.84-.95-1.066-1.69v-4.4c.06-.54.272-.999.634-1.38.363-.38.75-.625 1.16-.734h6.353c-.97-1.235-1.53-2.201-1.684-2.899-.23-1.047-.428-3.761 1.684-5.212 2.113-1.451 5.14-1.408 6.884.583 1.162 1.327 2.322 3.219 3.478 5.676a32.38 32.38 0 0 1 1.753-3.416C40.939 2.2 42.682 0 45.413 0zm-4.575 17.74h-5.452v7.366c.273.17.506.355.699.552.289.296 1.865 1.415 1.865 3.326 0 1.274-.855 2.467-2.564 3.58v3.287h5.452V17.74zm-7.575 15.24h-6.915c-.991.144-1.487.622-1.487 1.435 0 .814.496 1.292 1.487 1.436h6.915V32.98zm18.544-15.24h-8.845v16.155a299.128 299.128 0 0 0 4.196-3.876c1.563-1.481 2.496-2.299 3.279-2.636.522-.225.978-.356 1.37-.394V17.74zm-18.544 0H24.49v7.188h8.772V17.74zm-1.214-6.36H21.933v4.218H32.05V11.38zm10.114 0H34.17v4.218h7.994V11.38zm12.205 0H44.274v4.218h10.094V11.38zM33.263 3.215c-.907-1.06-3.178-1.193-4.018-.465-.841.729-1.276 2.028-.865 3.137.273.74 1.124 1.747 2.55 3.02h5.366c-1.418-3.088-2.429-4.986-3.033-5.692zm13.031-.922c-1.09-.402-2.942.667-4.13 2.251-.793 1.057-1.51 2.51-2.15 4.362h5.743c1.628-1.7 2.441-2.91 2.441-3.632 0-1.082-.813-2.579-1.904-2.981zm5.114 36.053a1.264 1.264 0 1 0 0-2.529 1.264 1.264 0 0 0 0 2.529zM1.264 37.08a1.264 1.264 0 1 0 0-2.528 1.264 1.264 0 0 0 0 2.528z" fill="#12BC7D"/>
    </g>
</svg>
